<svg width="8312" height="8312" viewBox="0 0 8312 8312" fill="none" xmlns="http://www.w3.org/2000/svg">
<g opacity="0.41">
<path d="M7960.41 4932.34C7967.53 4809.81 7964.34 4686.72 7950.54 4564.83C7885.66 3992.14 7591.84 3452.11 7159.4 3071.07C7005.12 2935.13 6829.58 2813.35 6729.17 2633.91C6560.09 2331.72 6572.91 1984.42 6363.05 1686.06C6152.95 1387.34 5846.79 1154.39 5501.52 1034.74C4472.07 678.027 3030.78 1258.84 3160.55 2499.17C3161.01 2503.62 3161.51 2510.09 3162.06 2518.27C3179.32 2775.91 2977.1 2992.54 2719.75 2998.64C1769.94 3021.18 952.35 3753.48 777.399 4681.1C664.888 5277.65 849.115 5931.53 1285.5 6353.54C1611.24 6668.57 2048.29 6841.62 2485.55 6960.54C3362.28 7198.97 4284.88 7248.95 5188.86 7157.78C6035.04 7072.43 6927.63 6829.17 7474.88 6178.16C7766.84 5830.87 7934.08 5385.51 7960.41 4932.34Z" fill="#E1E2FE"/>
</g>
<g opacity="0.31">
<path d="M3694.1 929.447C3807.01 883.119 3861 754.025 3814.67 641.109C3768.34 528.193 3639.24 474.212 3526.33 520.541C3413.41 566.869 3359.43 695.963 3405.76 808.879C3452.09 921.796 3581.18 975.776 3694.1 929.447Z" fill="#E1E2FE"/>
</g>
<g opacity="0.31">
<path d="M7808.2 3424.73C7871.18 3424.73 7922.23 3373.68 7922.23 3310.7C7922.23 3247.73 7871.18 3196.68 7808.2 3196.68C7745.23 3196.68 7694.18 3247.73 7694.18 3310.7C7694.18 3373.68 7745.23 3424.73 7808.2 3424.73Z" fill="#E1E2FE"/>
</g>
<g opacity="0.31">
<path d="M2685.31 1321.23C2741.33 1258.13 2735.6 1161.56 2672.49 1105.54C2609.39 1049.51 2512.82 1055.25 2456.8 1118.36C2400.77 1181.46 2406.51 1278.03 2469.62 1334.05C2532.72 1390.07 2629.29 1384.33 2685.31 1321.23Z" fill="#E1E2FE"/>
</g>
<g opacity="0.31">
<path d="M809.203 7108.84C1001.34 7108.84 1157.09 6953.08 1157.09 6760.95C1157.09 6568.81 1001.34 6413.06 809.203 6413.06C617.068 6413.06 461.312 6568.81 461.312 6760.95C461.312 6953.08 617.068 7108.84 809.203 7108.84Z" fill="#E1E2FE"/>
</g>
<path opacity="0.47" d="M7921.31 1549.79C8020.49 1356.62 7944.27 1119.61 7751.1 1020.45C7557.93 921.287 7186.72 928.585 7087.54 1121.76C6988.36 1314.93 7285.68 1480.72 7406.9 1660.86C7576 1912.13 7822.15 1742.98 7921.31 1549.79Z" fill="#ECF1F7"/>
<path opacity="0.47" d="M7027.01 7299.63C7166.79 7389.87 7353.23 7349.72 7443.46 7209.94C7533.7 7070.17 7556.24 6786.61 7416.46 6696.38C7276.69 6606.14 7127.8 6820.26 6981.28 6899.04C6776.92 7008.93 6887.24 7209.4 7027.01 7299.63Z" fill="#E1E2FE"/>
<path opacity="0.47" d="M1322.2 476.012C1168.47 333.245 928.115 342.139 785.349 495.878C642.582 649.617 552.28 996.776 706.019 1139.54C859.758 1282.31 1091.71 1049.14 1290.97 983.51C1568.89 891.961 1475.94 618.779 1322.2 476.012Z" fill="#E1E2FE"/>
<path opacity="0.47" d="M7543.84 5821.38C7679.54 5529.91 7733.52 5206.57 7663.51 4865.18C7586.21 4488.18 7351.5 4198.54 7432.94 3796.36C7482.54 3551.39 7494.96 3324.45 7520.11 3082.06C7571.76 2584.33 7248.61 2145.78 6847.71 1908.97C6522.09 1716.63 6140.36 1644.46 5766 1649.58C5429.06 1654.21 5092.73 1716.43 4766.23 1800.08C4451.59 1880.71 4143.96 1986.93 3814.16 1953.42C3539.86 1925.54 3292.83 1806.96 3037.39 1718.54C2427.53 1507.43 1688.78 1477.66 1131.11 1799.03C773.214 2005.29 522.707 2340.23 411.609 2700.34C322.82 2988.12 311.549 3257.24 378.095 3551.07C439.686 3822.96 535.274 4089.54 532.515 4371.68C529.705 4659.59 381.619 4916.62 439.952 5212.76C481.213 5422.23 606.891 5606.05 752.118 5762.53C1151.69 6193.06 1709.73 6453.07 2283.94 6576.82C3048.37 6741.58 3827.69 6584.25 4585.43 6748.25C5082.3 6855.79 5574.34 7063.31 6091.68 6982.15C6414.85 6931.46 6715.75 6773.62 6964.09 6560.71C7207.78 6351.83 7413.5 6101.31 7543.84 5821.38Z" fill="#E1E2FE"/>
<path opacity="0.81" d="M6846.41 5362.72C6867.52 5125.13 6787.39 4880.29 6854.37 4645C6934.57 4363.3 7166.69 4152.29 7261.31 3875.72C7401.14 3467.04 7394.42 3009.09 7224.62 2610.85C7142.78 2418.93 7023.24 2240.57 6859.99 2117.2C6608.32 1927.04 6278.57 1885.33 5968.45 1909.45C5506.9 1945.34 5019.88 2145.16 4555.82 2090.67C4299.75 2060.6 4221.55 1783.44 4089.29 1600.61C3939.7 1393.82 3735.99 1231.42 3510.79 1123.3C3095.99 924.179 2598.16 905.327 2174.22 1085.88C1721.6 1278.65 1327.09 1749.39 1353.03 2281.78C1365.03 2528.06 1463.61 2772.68 1417.98 3014.68C1360.69 3318.38 1131.86 3595.14 966.036 3842.59C782.906 4115.87 672.04 4441.77 650.296 4774.25C650.047 4778.02 649.814 4781.78 649.598 4785.55C615.602 5359.13 977.373 5882.25 1523.21 6061.76C1523.21 6061.76 2684.54 6443.7 2684.59 6443.71C3863 6831.27 5040.39 6818.45 6123.9 6249.68C6358.36 6126.59 6740.13 5759.88 6818.76 5507.02C6833.59 5459.32 6842.1 5411.18 6846.41 5362.72Z" fill="#E1E2FE"/>
<path opacity="0.58" d="M7774.23 6418.18C7815.55 6418.18 7849.04 6384.69 7849.04 6343.37C7849.04 6302.06 7815.55 6268.56 7774.23 6268.56C7732.91 6268.56 7699.42 6302.06 7699.42 6343.37C7699.42 6384.69 7732.91 6418.18 7774.23 6418.18Z" fill="#3E479B"/>
<path opacity="0.58" d="M4318.5 587.843C4359.81 587.843 4393.3 554.35 4393.3 513.035C4393.3 471.719 4359.81 438.227 4318.5 438.227C4277.18 438.227 4243.69 471.719 4243.69 513.035C4243.69 554.35 4277.18 587.843 4318.5 587.843Z" fill="#3E479B"/>
<path opacity="0.58" d="M1615.96 7108.06C1657.28 7108.06 1690.77 7074.56 1690.77 7033.25C1690.77 6991.93 1657.28 6958.44 1615.96 6958.44C1574.65 6958.44 1541.16 6991.93 1541.16 7033.25C1541.16 7074.56 1574.65 7108.06 1615.96 7108.06Z" fill="#3E479B"/>
<path opacity="0.58" d="M6337.7 7406.01C6369.83 7406.01 6395.88 7379.96 6395.88 7347.82C6395.88 7315.69 6369.83 7289.64 6337.7 7289.64C6305.57 7289.64 6279.52 7315.69 6279.52 7347.82C6279.52 7379.96 6305.57 7406.01 6337.7 7406.01Z" fill="#EF929C"/>
<path opacity="0.58" d="M7516.22 7723.01C7557.54 7723.01 7591.03 7689.52 7591.03 7648.2C7591.03 7606.89 7557.54 7573.4 7516.22 7573.4C7474.91 7573.4 7441.41 7606.89 7441.41 7648.2C7441.41 7689.52 7474.91 7723.01 7516.22 7723.01Z" fill="#EF929C"/>
<path opacity="0.58" d="M1269.94 1397.38C1283.71 1397.38 1294.87 1386.22 1294.87 1372.45C1294.87 1358.67 1283.71 1347.51 1269.94 1347.51C1256.16 1347.51 1245 1358.67 1245 1372.45C1245 1386.22 1256.16 1397.38 1269.94 1397.38Z" fill="#3E479B"/>
<path opacity="0.58" d="M6597.45 1043.26C6587.09 1091.78 6539.35 1122.7 6490.84 1112.35C6442.31 1101.99 6411.39 1054.25 6421.75 1005.74C6432.11 957.211 6479.85 926.29 6528.36 936.647C6576.87 947.004 6607.8 994.731 6597.45 1043.26Z" fill="#EF929C"/>
<path opacity="0.58" d="M1796.59 595.207C1792.53 614.241 1773.81 626.36 1754.78 622.304C1735.74 618.248 1723.62 599.529 1727.68 580.495C1731.74 561.46 1750.46 549.341 1769.49 553.397C1788.52 557.454 1800.66 576.172 1796.59 595.207Z" fill="#EF929C"/>
<path opacity="0.58" d="M7411.48 482.429C7408.02 498.604 7392.11 508.911 7375.93 505.453C7359.76 501.995 7349.45 486.086 7352.91 469.911C7356.37 453.736 7372.28 443.429 7388.45 446.887C7404.63 450.345 7414.93 466.254 7411.48 482.429Z" fill="#3E479B"/>
<path opacity="0.58" d="M1076.87 7624.51C1073.41 7640.69 1057.5 7651 1041.33 7647.54C1025.15 7644.08 1014.84 7628.17 1018.3 7612C1021.76 7595.82 1037.67 7585.51 1053.84 7588.97C1070.02 7592.43 1080.32 7608.34 1076.87 7624.51Z" fill="#3E479B"/>
<g opacity="0.73">
<path d="M2126.33 3308.97C2118.15 3308.97 2109.9 3307.88 2101.79 3305.65L1962.15 3267.45C1913.01 3254 1883.97 3203.1 1897.42 3153.94L1944.1 2983.38C1858.68 2939.29 1783.18 2880.74 1719.24 2808.99L1565.67 2896.58C1544.22 2908.82 1519.32 2911.94 1495.51 2905.44C1471.71 2898.93 1451.86 2883.53 1439.64 2862.1L1367.92 2736.34C1342.67 2692.09 1358.15 2635.55 1402.4 2610.32L1555.98 2522.73C1526.78 2431.16 1514.81 2336.37 1520.35 2240.42L1349.79 2193.74C1300.66 2180.29 1271.62 2129.38 1285.05 2080.24L1323.26 1940.6C1336.7 1891.46 1387.62 1862.44 1436.76 1875.87L1607.33 1922.55C1651.41 1837.13 1709.96 1761.63 1781.71 1697.69L1694.12 1544.12C1681.89 1522.68 1678.74 1497.76 1685.26 1473.97C1691.78 1450.16 1707.17 1430.33 1728.6 1418.09L1854.36 1346.36C1898.63 1321.11 1955.15 1336.6 1980.39 1380.84L2067.98 1534.41C2159.53 1505.2 2254.35 1493.25 2350.29 1498.79L2396.97 1328.22C2410.42 1279.08 2461.34 1250.04 2510.46 1263.49L2650.1 1301.69C2699.22 1315.14 2728.28 1366.04 2714.83 1415.2L2668.15 1585.76C2753.57 1629.85 2829.07 1688.4 2893.01 1760.15L3046.58 1672.56C3068.01 1660.32 3092.93 1657.18 3116.74 1663.7C3140.54 1670.21 3160.37 1685.61 3172.61 1707.04L3244.34 1832.8C3256.58 1854.24 3259.72 1879.16 3253.2 1902.95C3246.69 1926.75 3231.29 1946.6 3209.86 1958.82L3056.29 2046.41C3085.48 2137.98 3097.45 2232.75 3091.92 2328.72L3262.48 2375.4C3286.28 2381.92 3306.12 2397.3 3318.35 2418.74C3330.57 2440.17 3333.71 2465.09 3327.21 2488.9L3289.01 2628.55C3275.56 2677.69 3224.66 2706.72 3175.5 2693.29L3004.94 2646.61C2960.84 2732.04 2902.3 2807.53 2830.55 2871.46L2918.15 3025.04C2930.36 3046.48 2933.51 3071.38 2927.01 3095.19C2920.49 3119 2905.1 3138.84 2883.65 3151.06L2757.91 3222.78C2736.46 3235.01 2711.54 3238.14 2687.75 3231.64C2663.95 3225.12 2644.1 3209.73 2631.88 3188.28L2544.29 3034.71C2452.72 3063.92 2357.97 3075.89 2261.98 3070.34L2215.3 3240.9C2208.78 3264.7 2193.41 3284.55 2171.96 3296.77C2157.81 3304.87 2142.17 3308.97 2126.33 3308.97ZM1730.29 2745.27L1743.69 2761.1C1810.41 2839.98 1891.38 2902.78 1984.41 2947.78L2003.08 2956.81L1945.54 3167.1C1942.55 3178.06 1944 3189.53 1949.63 3199.39C1955.25 3209.26 1964.39 3216.35 1975.35 3219.34L2114.99 3257.54C2125.93 3260.55 2137.42 3259.09 2147.27 3253.47C2157.13 3247.85 2164.23 3238.7 2167.22 3227.75L2224.78 3017.46L2245.44 3019.18C2348.44 3027.81 2450.1 3014.98 2547.66 2981.05L2567.25 2974.25L2675.24 3163.6C2680.87 3173.47 2690 3180.55 2700.95 3183.55C2711.94 3186.57 2723.4 3185.11 2733.24 3179.47L2859 3107.74C2868.87 3102.1 2875.95 3092.98 2878.95 3082.02C2881.94 3071.07 2880.49 3059.6 2874.87 3049.74L2766.87 2860.38L2782.69 2846.99C2861.57 2780.3 2924.38 2699.31 2969.38 2606.28L2978.41 2587.61L3188.7 2645.16C3211.24 2651.31 3234.75 2637.98 3240.93 2615.37L3279.14 2475.71C3282.13 2464.76 3280.68 2453.29 3275.06 2443.43C3269.44 2433.57 3260.3 2426.47 3249.35 2423.48L3039.05 2365.94L3040.78 2345.28C3049.39 2242.3 3036.58 2140.62 3002.65 2043.06L2995.83 2023.47L3185.19 1915.47C3195.07 1909.85 3202.15 1900.71 3205.14 1889.77C3208.13 1878.81 3206.69 1867.34 3201.07 1857.48L3129.34 1731.72C3123.7 1721.85 3114.58 1714.77 3103.62 1711.77C3092.65 1708.78 3081.19 1710.23 3071.34 1715.85L2881.99 1823.85L2868.59 1808.03C2801.88 1729.15 2720.9 1666.34 2627.87 1621.34L2609.21 1612.31L2666.74 1402.02C2669.73 1391.06 2668.29 1379.59 2662.65 1369.73C2657.03 1359.88 2647.89 1352.79 2636.93 1349.79L2497.29 1311.58C2474.73 1305.38 2451.24 1318.77 2445.06 1341.37L2387.51 1551.67L2366.84 1549.94C2263.83 1541.28 2162.17 1554.14 2064.62 1588.07L2045.04 1594.89L1937.03 1405.53C1931.41 1395.65 1922.27 1388.57 1911.33 1385.58C1900.37 1382.6 1888.9 1384.03 1879.05 1389.65L1753.29 1461.38C1743.41 1467.02 1736.33 1476.14 1733.34 1487.1C1730.34 1498.06 1731.79 1509.53 1737.41 1519.38L1845.42 1708.73L1829.59 1722.13C1750.71 1788.84 1687.9 1869.82 1642.9 1962.85L1633.88 1981.5L1423.58 1923.96C1412.64 1920.97 1401.16 1922.4 1391.3 1928.05C1381.44 1933.67 1374.34 1942.81 1371.35 1953.77L1333.15 2093.41C1330.15 2104.37 1331.6 2115.84 1337.22 2125.69C1342.84 2135.55 1351.98 2142.65 1362.94 2145.64L1573.23 2203.18L1571.5 2223.84C1562.89 2326.81 1575.71 2428.5 1609.64 2526.07L1616.44 2545.65L1427.09 2653.64C1417.21 2659.27 1410.13 2668.4 1407.14 2679.36C1404.15 2690.31 1405.59 2701.78 1411.21 2711.64L1482.95 2837.4C1488.56 2847.26 1497.71 2854.36 1508.66 2857.35C1519.59 2860.34 1531.07 2858.91 1540.95 2853.28L1730.29 2745.27ZM2306.78 2701.27C2269.89 2701.27 2232.75 2696.31 2196.22 2686.32C2088.91 2656.96 1999.45 2587.58 1944.35 2490.94C1889.22 2394.3 1875.04 2281.98 1904.4 2174.67C1933.76 2067.36 2003.14 1977.91 2099.8 1922.8C2196.43 1867.69 2308.76 1853.51 2416.07 1882.87C2523.38 1912.23 2612.83 1981.61 2667.94 2078.25C2723.05 2174.88 2737.24 2287.2 2707.87 2394.5C2678.51 2501.81 2609.12 2591.27 2512.49 2646.37C2448.75 2682.71 2378.21 2701.25 2306.78 2701.27ZM2305.55 1917.78C2242.68 1917.78 2180.59 1934.1 2124.5 1966.09C2039.43 2014.6 1978.36 2093.34 1952.51 2187.8C1926.66 2282.26 1939.14 2381.12 1987.67 2466.19C2036.19 2551.25 2114.92 2612.35 2209.38 2638.18C2303.82 2664.01 2402.7 2651.53 2487.77 2603.02C2572.83 2554.51 2633.93 2475.76 2659.76 2381.3C2685.61 2286.85 2673.12 2187.98 2624.6 2102.92C2576.09 2017.85 2497.34 1956.78 2402.88 1930.93C2370.72 1922.13 2338.02 1917.78 2305.55 1917.78Z" fill="white"/>
</g>
<g opacity="0.69">
<path d="M6168.83 2859.1L5228.33 2876.17C5201.15 2876.67 5178.73 2859.48 5178.33 2837.87L5166.99 2213.37C5166.59 2191.74 5188.38 2173.76 5215.57 2173.27L6156.07 2156.2C6183.25 2155.7 6205.67 2172.89 6206.07 2194.52L6217.41 2819.02C6217.81 2840.61 6196.03 2858.6 6168.83 2859.1ZM5215.78 2184.93C5195.03 2185.31 5178.38 2197.96 5178.66 2213.15L5190 2837.65C5190.28 2852.83 5207.37 2864.88 5228.12 2864.5L6168.62 2847.43C6189.37 2847.04 6206.02 2834.39 6205.74 2819.22L6194.4 2194.72C6194.12 2179.54 6177.01 2167.49 6156.28 2167.87L5215.78 2184.93Z" fill="white"/>
<path d="M6195.53 2282.41L5174.35 2301L5174.56 2312.67L6195.74 2294.08L6195.53 2282.41Z" fill="white"/>
<path d="M5248.03 2269.82C5235.91 2270.04 5225.87 2260.37 5225.64 2248.23C5225.42 2236.11 5235.1 2226.07 5247.23 2225.84C5259.35 2225.62 5269.39 2235.3 5269.62 2247.43C5269.84 2259.57 5260.15 2269.61 5248.03 2269.82ZM5247.45 2237.52C5241.76 2237.62 5237.22 2242.35 5237.32 2248.03C5237.42 2253.72 5242.14 2258.25 5247.83 2258.15C5253.52 2258.05 5258.07 2253.33 5257.95 2247.65C5257.84 2241.96 5253.13 2237.42 5247.45 2237.52Z" fill="white"/>
<path d="M5308.63 2268.73C5296.51 2268.95 5286.47 2259.27 5286.25 2247.13C5286.04 2235.02 5295.71 2224.97 5307.83 2224.74C5319.95 2224.53 5329.99 2234.2 5330.21 2246.34C5330.44 2258.47 5320.75 2268.51 5308.63 2268.73ZM5308.05 2236.43C5302.36 2236.53 5297.82 2241.25 5297.92 2246.93C5298.02 2252.62 5302.74 2257.18 5308.41 2257.06C5314.1 2256.96 5318.64 2252.24 5318.54 2246.55C5318.44 2240.87 5313.73 2236.33 5308.05 2236.43Z" fill="white"/>
<path d="M5368.09 2267.65C5355.97 2267.86 5345.93 2258.19 5345.7 2246.05C5345.48 2233.93 5355.16 2223.89 5367.28 2223.66C5379.4 2223.44 5389.44 2233.12 5389.67 2245.24C5389.89 2257.39 5380.21 2267.43 5368.09 2267.65ZM5367.49 2235.35C5361.81 2235.45 5357.27 2240.17 5357.37 2245.85C5357.47 2251.54 5362.19 2256.08 5367.88 2255.98C5373.56 2255.88 5378.1 2251.16 5378 2245.47C5377.9 2239.79 5373.2 2235.25 5367.49 2235.35Z" fill="white"/>
</g>
<g opacity="0.69">
<path d="M3012.17 6591.83L2071.67 6608.91C2044.49 6609.4 2022.06 6592.21 2021.66 6570.6L2010.33 5946.11C2009.93 5924.48 2031.72 5906.49 2058.9 5906.01L2999.4 5888.94C3026.58 5888.44 3049.03 5905.63 3049.41 5927.25L3060.75 6551.75C3061.15 6573.35 3039.35 6591.33 3012.17 6591.83ZM2059.1 5917.66C2038.35 5918.04 2021.7 5930.7 2021.98 5945.89L2033.32 6570.39C2033.6 6585.56 2050.69 6597.62 2071.44 6597.24L3011.94 6580.16C3032.68 6579.78 3049.34 6567.13 3049.06 6551.95L3037.72 5927.45C3037.44 5912.28 3020.35 5900.22 2999.6 5900.61L2059.1 5917.66Z" fill="white"/>
<path d="M3039.12 6015.16L2017.95 6033.74L2018.16 6045.41L3039.33 6026.82L3039.12 6015.16Z" fill="white"/>
<path d="M2091.35 6002.56C2079.23 6002.78 2069.19 5993.1 2068.96 5980.97C2068.74 5968.85 2078.42 5958.81 2090.55 5958.59C2102.67 5958.38 2112.71 5968.05 2112.94 5980.17C2113.16 5992.29 2103.48 6002.35 2091.35 6002.56ZM2090.77 5970.26C2085.08 5970.36 2080.54 5975.08 2080.64 5980.77C2080.74 5986.45 2085.46 5990.99 2091.15 5990.89C2096.84 5990.79 2101.39 5986.07 2101.27 5980.39C2101.17 5974.7 2096.45 5970.16 2090.77 5970.26Z" fill="white"/>
<path d="M2151.97 6001.46C2139.85 6001.68 2129.81 5992 2129.59 5979.87C2129.37 5967.75 2139.05 5957.71 2151.17 5957.48C2163.29 5957.26 2173.33 5966.94 2173.56 5979.07C2173.76 5991.19 2164.08 6001.23 2151.97 6001.46ZM2151.37 5969.16C2145.68 5969.26 2141.14 5973.98 2141.24 5979.67C2141.34 5985.35 2146.06 5989.91 2151.73 5989.79C2157.42 5989.69 2161.96 5984.97 2161.86 5979.29C2161.77 5973.6 2157.05 5969.05 2151.37 5969.16Z" fill="white"/>
<path d="M2211.41 6000.38C2199.29 6000.6 2189.25 5990.92 2189.02 5978.79C2188.8 5966.67 2198.48 5956.63 2210.61 5956.4C2222.73 5956.18 2232.77 5965.86 2233.01 5977.99C2233.22 5990.11 2223.53 6000.17 2211.41 6000.38ZM2210.83 5968.08C2205.14 5968.18 2200.61 5972.9 2200.71 5978.59C2200.81 5984.27 2205.53 5988.81 2211.21 5988.71C2216.9 5988.61 2221.45 5983.89 2221.34 5978.21C2221.22 5972.52 2216.52 5967.97 2210.83 5968.08Z" fill="white"/>
</g>
<g opacity="0.55">
<path d="M6920.26 4824.92L6822.96 4746.92C6855.29 4686.62 6873.71 4621.47 6878.58 4555.76L7002.52 4542.11C7025.92 4539.53 7042.81 4518.47 7040.23 4495.06L7030.21 4404.1C7027.63 4380.69 7006.57 4363.8 6983.16 4366.38L6859.23 4380.02C6840.18 4316.94 6808.01 4257.36 6763.35 4205.54L6841.35 4108.24C6856.07 4089.87 6853.12 4063.04 6834.75 4048.31L6763.35 3991.07C6744.98 3976.34 6718.14 3979.3 6703.42 3997.67L6625.42 4094.97C6565.12 4062.64 6499.97 4044.22 6434.26 4039.35L6420.61 3915.42C6418.03 3892.01 6396.97 3875.12 6373.56 3877.7L6282.6 3887.72C6259.19 3890.3 6242.3 3911.36 6244.88 3934.77L6258.52 4058.7C6195.44 4077.75 6135.86 4109.92 6084.04 4154.59L5986.74 4076.59C5968.37 4061.86 5941.52 4064.82 5926.81 4083.19L5869.57 4154.59C5854.84 4172.96 5857.8 4199.79 5876.17 4214.52L5973.47 4292.52C5941.14 4352.81 5922.72 4417.96 5917.85 4483.68L5793.92 4497.32C5770.51 4499.9 5753.62 4520.96 5756.2 4544.37L5766.22 4635.34C5768.8 4658.74 5789.86 4675.63 5813.27 4673.06L5937.2 4659.41C5956.25 4722.5 5988.42 4782.08 6033.09 4833.89L5955.09 4931.19C5940.36 4949.56 5943.32 4976.39 5961.69 4991.12L6033.09 5048.36C6051.46 5063.09 6078.3 5060.13 6093.02 5041.76L6171.02 4944.46C6231.31 4976.79 6296.46 4995.21 6362.18 5000.08L6375.82 5124.02C6378.4 5147.42 6399.46 5164.31 6422.87 5161.73L6513.84 5151.71C6537.24 5149.13 6554.13 5128.07 6551.56 5104.66L6537.91 4980.73C6601 4961.68 6660.58 4929.51 6712.39 4884.85L6809.69 4962.85C6828.06 4977.57 6854.91 4974.62 6869.62 4956.25L6926.86 4884.85C6941.59 4866.48 6938.63 4839.64 6920.26 4824.92ZM6243.4 4712.85C6136.74 4627.36 6119.58 4471.59 6205.08 4364.93C6290.58 4258.27 6446.34 4241.11 6553 4326.61C6659.66 4412.11 6676.82 4567.88 6591.32 4674.54C6505.82 4781.19 6350.06 4798.35 6243.4 4712.85Z" fill="white"/>
<path d="M6418.1 5170.33C6406.58 5170.33 6395.47 5166.46 6386.33 5159.12C6375.71 5150.61 6369.04 5138.48 6367.56 5124.95L6354.66 5007.83C6290.94 5002.23 6229.96 4984.49 6173.21 4955.03L6099.48 5046.98C6090.97 5057.6 6078.85 5064.27 6065.3 5065.76C6051.77 5067.28 6038.49 5063.37 6027.87 5054.89L5956.47 4997.64C5945.84 4989.13 5939.18 4977.01 5937.68 4963.46C5936.18 4949.93 5940.06 4936.65 5948.55 4926.02L6022.26 4834.08C5981.19 4785.08 5950.58 4729.41 5931.25 4668.45L5814.13 4681.33C5800.6 4682.8 5787.32 4678.96 5776.69 4670.45C5766.07 4661.93 5759.41 4649.8 5757.91 4636.27L5747.9 4545.3C5746.41 4531.78 5750.26 4518.49 5758.79 4507.86C5767.3 4497.24 5779.44 4490.57 5792.97 4489.08L5910.09 4476.18C5915.69 4412.47 5933.43 4351.5 5962.88 4294.73L5870.94 4221C5860.31 4212.49 5853.65 4200.37 5852.15 4186.84C5850.65 4173.3 5854.53 4160.01 5863.04 4149.4L5920.28 4078C5928.79 4067.38 5940.91 4060.71 5954.45 4059.21C5967.85 4057.67 5981.27 4061.59 5991.89 4070.1L6083.84 4143.81C6132.85 4102.72 6188.5 4072.13 6249.46 4052.78L6236.58 3935.68C6233.49 3907.75 6253.72 3882.53 6281.65 3879.46L6372.61 3869.43C6400.61 3866.49 6425.75 3886.57 6428.84 3914.5L6441.74 4031.62C6505.42 4037.22 6566.4 4054.98 6623.19 4084.42L6696.92 3992.47C6714.47 3970.54 6746.6 3967.03 6768.53 3984.57L6839.93 4041.81C6850.55 4050.32 6857.22 4062.46 6858.72 4075.99C6860.21 4089.52 6856.34 4102.8 6847.83 4113.43L6774.12 4205.37C6815.21 4254.38 6845.82 4310.05 6865.13 4371.01L6982.25 4358.11C6995.73 4356.58 7009.06 4360.49 7019.69 4369C7030.31 4377.51 7036.98 4389.65 7038.47 4403.18L7048.48 4494.15C7049.98 4507.68 7046.12 4520.96 7037.59 4531.59C7029.08 4542.21 7016.94 4548.87 7003.41 4550.37L6886.3 4563.27C6880.69 4626.96 6862.96 4687.93 6833.5 4744.72L6925.45 4818.45C6936.07 4826.96 6942.73 4839.08 6944.23 4852.63C6945.73 4866.16 6941.85 4879.44 6933.33 4890.07L6876.12 4961.47C6858.52 4983.38 6826.4 4986.88 6804.49 4969.38L6712.54 4895.65C6663.55 4936.75 6607.89 4967.33 6546.9 4986.68L6559.8 5103.8C6561.3 5117.33 6557.42 5130.61 6548.91 5141.24C6540.4 5151.86 6528.27 5158.53 6514.73 5160.02L6423.77 5170.05C6421.89 5170.23 6419.99 5170.33 6418.1 5170.33ZM6168.85 4933.9L6174.94 4937.16C6233.41 4968.53 6296.59 4986.9 6362.79 4991.8L6369.67 4992.32L6384.09 5123.12C6385.08 5132.24 6389.57 5140.41 6396.74 5146.14C6403.88 5151.89 6412.83 5154.57 6421.95 5153.47L6512.92 5143.45C6522.03 5142.43 6530.21 5137.95 6535.95 5130.8C6541.7 5123.63 6544.29 5114.69 6543.28 5105.58L6528.86 4974.78L6535.48 4972.79C6599.02 4953.59 6656.72 4921.87 6706.96 4878.54L6712.18 4874.04L6814.88 4956.38C6829.62 4968.16 6851.27 4965.8 6863.14 4951.06L6920.34 4879.66C6926.09 4872.49 6928.7 4863.53 6927.69 4854.42C6926.68 4845.3 6922.2 4837.13 6915.04 4831.4L6812.34 4749.06L6815.59 4742.98C6846.96 4684.48 6865.33 4621.29 6870.24 4555.12L6870.75 4548.24L7001.55 4533.83C7010.66 4532.83 7018.84 4528.33 7024.57 4521.18C7030.33 4514.01 7032.92 4505.07 7031.91 4495.94L7021.88 4404.98C7020.87 4395.87 7016.38 4387.69 7009.23 4381.95C7002.07 4376.22 6993.16 4373.52 6984 4374.62L6853.2 4389.03L6851.2 4382.42C6832.02 4318.9 6800.3 4261.21 6756.96 4210.96L6752.46 4205.74L6834.8 4103.04C6840.53 4095.87 6843.12 4086.93 6842.11 4077.8C6841.1 4068.69 6836.62 4060.51 6829.46 4054.78L6758.06 3997.54C6743.26 3985.7 6721.65 3988.08 6709.8 4002.84L6627.48 4105.55L6621.39 4102.27C6562.91 4070.92 6499.71 4052.51 6433.54 4047.61L6426.66 4047.1L6412.25 3916.3C6410.18 3897.5 6393.11 3883.96 6374.38 3885.94L6283.41 3895.97C6274.3 3896.98 6266.12 3901.45 6260.39 3908.62C6254.63 3915.77 6252.04 3924.73 6253.05 3933.85L6267.43 4064.65L6260.84 4066.65C6197.31 4085.83 6139.63 4117.53 6089.37 4160.87L6084.15 4165.39L5981.45 4083.07C5974.3 4077.33 5965.28 4074.72 5956.22 4075.74C5947.09 4076.74 5938.93 4081.24 5933.19 4088.39L5875.94 4159.79C5870.2 4166.95 5867.61 4175.9 5868.62 4185.01C5869.64 4194.13 5874.11 4202.3 5881.28 4208.03L5983.98 4290.37L5980.72 4296.46C5949.35 4354.94 5930.98 4418.13 5926.08 4484.31L5925.56 4491.19L5794.76 4505.6C5785.65 4506.6 5777.48 4511.1 5771.74 4518.25C5765.99 4525.42 5763.4 4534.36 5764.41 4543.49L5774.43 4634.45C5775.45 4643.56 5779.94 4651.74 5787.08 4657.48C5794.25 4663.21 5803.18 4665.82 5812.32 4664.81L5943.12 4650.43L5945.11 4657.03C5964.3 4720.55 5996.01 4778.24 6039.34 4828.49L6043.86 4833.73L5961.55 4936.43C5955.8 4943.59 5953.21 4952.55 5954.22 4961.66C5955.24 4970.79 5959.71 4978.95 5966.87 4984.69L6038.27 5041.94C6045.44 5047.66 6054.38 5050.32 6063.51 5049.26C6072.63 5048.26 6080.8 5043.77 6086.53 5036.61L6168.85 4933.9ZM6397.93 4775.44C6341.79 4775.44 6285.31 4757.11 6238.19 4719.35C6184.88 4676.61 6151.38 4615.67 6143.92 4547.76C6136.44 4479.83 6155.85 4413.06 6198.58 4359.74C6241.32 4306.43 6302.26 4272.93 6370.17 4265.45C6438.2 4257.9 6504.88 4277.4 6558.19 4320.11C6668.26 4408.35 6686.01 4569.69 6597.82 4679.74C6547.35 4742.68 6472.96 4775.44 6397.93 4775.44ZM6398.65 4280.5C6389.82 4280.5 6380.93 4280.98 6372 4281.98C6308.5 4288.97 6251.51 4320.28 6211.56 4370.13C6129.06 4473.05 6145.66 4623.9 6248.58 4706.37C6351.49 4788.87 6502.35 4772.23 6584.84 4669.35C6667.31 4566.45 6650.7 4415.58 6547.8 4333.08C6504.94 4298.75 6452.79 4280.5 6398.65 4280.5Z" fill="white"/>
</g>
<g opacity="0.38">
<path d="M7540.55 5563.8H6599.26C6583 5563.8 6569.79 5548.06 6569.79 5528.71V5182.33C6569.79 5162.97 6583.02 5147.22 6599.26 5147.22H7540.55C7556.81 5147.22 7570.02 5162.97 7570.02 5182.33V5528.71C7570.02 5548.06 7556.79 5563.8 7540.55 5563.8ZM6599.26 5163.85C6592.3 5163.85 6586.41 5172.32 6586.41 5182.33V5528.71C6586.41 5538.73 6592.3 5547.18 6599.26 5547.18H7540.55C7547.51 5547.18 7553.4 5538.72 7553.4 5528.71V5182.33C7553.4 5172.31 7547.51 5163.85 7540.55 5163.85H6599.26Z" fill="white"/>
<path d="M7400.73 5281.18H6763.55V5297.8H7400.73V5281.18Z" fill="white"/>
<path d="M7400.74 5306.12H6763.56C6754.39 5306.12 6746.94 5298.67 6746.94 5289.49C6746.94 5280.31 6754.39 5272.87 6763.56 5272.87H7400.74C7409.92 5272.87 7417.37 5280.31 7417.37 5289.49C7417.37 5298.65 7409.9 5306.12 7400.74 5306.12ZM7400.74 5289.49V5297.8L7400.76 5289.49H7400.74Z" fill="white"/>
<path d="M7048.26 5356.75H6763.54V5373.38H7048.26V5356.75Z" fill="white"/>
<path d="M7048.26 5381.69H6763.54C6754.36 5381.69 6746.91 5374.24 6746.91 5365.06C6746.91 5355.89 6754.36 5348.44 6763.54 5348.44H7048.26C7057.43 5348.44 7064.88 5355.89 7064.88 5365.06C7064.88 5374.24 7057.43 5381.69 7048.26 5381.69ZM7048.26 5365.06V5373.38L7048.27 5365.06H7048.26Z" fill="white"/>
<path d="M7400.74 5356.75H7116.04V5373.38H7400.74V5356.75Z" fill="white"/>
<path d="M7400.74 5381.69H7116.04C7106.86 5381.69 7099.41 5374.24 7099.41 5365.06C7099.41 5355.89 7106.86 5348.44 7116.04 5348.44H7400.74C7409.92 5348.44 7417.36 5355.89 7417.36 5365.06C7417.36 5374.24 7409.9 5381.69 7400.74 5381.69ZM7400.74 5365.06V5373.38L7400.76 5365.06H7400.74Z" fill="white"/>
<path d="M7400.73 5435.85H6763.55V5452.47H7400.73V5435.85Z" fill="white"/>
<path d="M7400.74 5460.8H6763.56C6754.39 5460.8 6746.94 5453.35 6746.94 5444.18C6746.94 5435 6754.39 5427.55 6763.56 5427.55H7400.74C7409.92 5427.55 7417.37 5435 7417.37 5444.18C7417.37 5453.35 7409.9 5460.8 7400.74 5460.8ZM7400.74 5444.18V5452.49L7400.76 5444.18H7400.74Z" fill="white"/>
</g>
<g opacity="0.55">
<path d="M4919.65 7103.55C4906.58 7103.55 4893.96 7099.13 4883.6 7090.82C4871.54 7081.16 4863.97 7067.38 4862.29 7052.02L4850.59 6945.76C4792.74 6939.82 4737.25 6923.68 4685.26 6897.65L4618.4 6981.1C4598.44 7005.99 4561.95 7010.01 4537.08 6990.06L4468.04 6934.72C4455.98 6925.06 4448.42 6911.28 4446.74 6895.92C4445.03 6880.56 4449.44 6865.46 4459.09 6853.41L4525.97 6769.96C4489.25 6724.87 4461.42 6674.22 4443.05 6619.08L4336.77 6630.78C4305.07 6634.11 4276.43 6611.3 4272.94 6579.61L4263.25 6491.67C4259.77 6459.99 4282.73 6431.34 4314.41 6427.84L4420.69 6416.15C4426.61 6358.31 4442.77 6302.84 4468.79 6250.82L4385.33 6183.95C4360.46 6164 4356.44 6127.51 4376.39 6102.64L4431.71 6033.61C4441.37 6021.55 4455.15 6013.98 4470.51 6012.3C4485.89 6010.61 4500.97 6015 4513.02 6024.65L4596.49 6091.52C4641.58 6054.81 4692.23 6026.96 4747.37 6008.6L4735.67 5902.33C4733.97 5886.99 4738.36 5871.9 4748.04 5859.83C4757.69 5847.76 4771.48 5840.19 4786.84 5838.51L4874.78 5828.82C4890.15 5827.19 4905.22 5831.53 4917.28 5841.19C4929.35 5850.85 4936.92 5864.63 4938.6 5879.99L4950.3 5986.27C5008.12 5992.19 5063.63 6008.35 5115.63 6034.36L5182.49 5950.91C5202.42 5926.02 5238.91 5921.98 5263.81 5941.95L5332.85 5997.29C5344.9 6006.95 5352.47 6020.73 5354.15 6036.09C5355.86 6051.45 5351.45 6066.55 5341.79 6078.6L5274.92 6162.05C5311.64 6207.14 5339.47 6257.79 5357.84 6312.93L5464.11 6301.24C5495.73 6297.79 5524.44 6320.69 5527.95 6352.38L5537.64 6440.34C5541.12 6472.02 5518.16 6500.67 5486.47 6504.17L5380.2 6515.88C5374.28 6573.69 5358.12 6629.19 5332.1 6681.19L5415.56 6748.06H5415.54C5427.61 6757.72 5435.17 6771.5 5436.85 6786.86C5438.56 6802.22 5434.16 6817.32 5424.5 6829.37L5369.17 6898.39C5359.52 6910.46 5345.73 6918.04 5330.37 6919.72C5315.03 6921.5 5299.94 6917.03 5287.85 6907.36L5204.4 6840.48C5159.31 6877.18 5108.66 6905.03 5053.52 6923.4L5065.22 7029.67C5068.73 7061.36 5045.77 7090 5014.05 7093.51L4926.11 7103.19C4923.95 7103.44 4921.79 7103.55 4919.65 7103.55ZM4676.5 6855.44L4688.67 6861.99C4744.11 6891.73 4804.06 6909.17 4866.86 6913.82L4880.65 6914.85L4895.36 7048.39C4896.07 7054.93 4899.28 7060.78 4904.42 7064.9C4909.54 7068.99 4915.99 7070.85 4922.47 7070.14L5010.43 7060.46C5016.96 7059.75 5022.81 7056.52 5026.94 7051.39C5031.04 7046.27 5032.9 7039.86 5032.17 7033.32L5017.46 6899.77L5030.69 6895.78C5090.92 6877.58 5145.65 6847.53 5193.31 6806.4L5203.78 6797.39L5308.65 6881.42C5313.78 6885.53 5320.13 6887.39 5326.73 6886.69C5333.27 6885.96 5339.12 6882.75 5343.22 6877.61L5398.55 6808.59C5402.66 6803.45 5404.52 6797.04 5403.8 6790.51C5403.07 6783.97 5399.86 6778.12 5394.74 6774.01H5394.73L5289.88 6689.95L5296.43 6677.78C5326.17 6622.3 5343.61 6562.36 5348.26 6499.6L5349.29 6485.82L5482.83 6471.11C5496.31 6469.61 5506.06 6457.44 5504.59 6443.96L5494.9 6356.02C5493.42 6342.52 5481.17 6332.86 5467.76 6334.28L5334.21 6348.97L5330.22 6335.74C5312.02 6275.49 5281.97 6220.78 5240.85 6173.12L5231.81 6162.65L5315.88 6057.79C5319.98 6052.67 5321.85 6046.25 5321.13 6039.72C5320.4 6033.18 5317.19 6027.33 5312.07 6023.22L5243.03 5967.88C5232.49 5959.42 5216.95 5961.1 5208.45 5971.71L5124.42 6076.57L5112.23 6070.02C5056.76 6040.28 4996.81 6022.84 4934.04 6018.19L4920.26 6017.16L4905.55 5883.62C4904.83 5877.08 4901.62 5871.23 4896.49 5867.12C4891.35 5863 4884.93 5861.19 4878.42 5861.87L4790.48 5871.56C4783.94 5872.28 4778.09 5875.49 4773.97 5880.62C4769.86 5885.76 4768 5892.16 4768.73 5898.68L4783.44 6032.23L4770.21 6036.22C4709.98 6054.43 4655.26 6084.48 4607.6 6125.61L4597.12 6134.62L4492.26 6050.59C4487.1 6046.46 4480.79 6044.64 4474.17 6045.33C4467.64 6046.07 4461.79 6049.27 4457.68 6054.39L4402.36 6123.42C4398.25 6128.55 4396.39 6134.97 4397.1 6141.5C4397.83 6148.04 4401.04 6153.89 4406.16 6158L4511.03 6242.06L4504.48 6254.23C4474.74 6309.71 4457.3 6369.65 4452.64 6432.42L4451.61 6446.21L4318.07 6460.9C4304.61 6462.4 4294.85 6474.57 4296.31 6488.05L4306 6575.99C4307.48 6589.47 4319.64 6599.15 4333.15 6597.75L4466.69 6583.04L4470.68 6596.27C4488.88 6656.52 4518.94 6711.23 4560.05 6758.89L4569.09 6769.36L4485.03 6874.22C4480.92 6879.34 4479.06 6885.76 4479.77 6892.29C4480.51 6898.83 4483.71 6904.68 4488.83 6908.78L4557.87 6964.13C4568.4 6972.57 4583.94 6970.89 4592.45 6960.32L4676.5 6855.44ZM4900.19 6721.8C4844.04 6721.8 4787.53 6703.45 4740.42 6665.68C4687.08 6622.94 4653.58 6561.97 4646.1 6494.02C4638.62 6426.07 4658.05 6359.3 4700.79 6305.95C4743.53 6252.6 4804.49 6219.1 4872.43 6211.64C4940.48 6204.11 5007.17 6223.59 5060.5 6266.33C5113.83 6309.07 5147.33 6370.03 5154.81 6437.98C5162.29 6505.92 5142.86 6572.7 5100.12 6626.04C5049.64 6689.02 4975.24 6721.8 4900.19 6721.8ZM4900.88 6243.31C4892.65 6243.31 4884.39 6243.76 4876.09 6244.67C4816.96 6251.19 4763.93 6280.33 4726.74 6326.71C4689.55 6373.13 4672.65 6431.24 4679.16 6490.36C4685.68 6549.49 4714.82 6602.52 4761.22 6639.71C4857.06 6716.48 4997.41 6701.02 5074.2 6605.25C5111.39 6558.83 5128.29 6500.73 5121.78 6441.62C5115.26 6382.49 5086.12 6329.46 5039.72 6292.27C4999.82 6260.3 4951.26 6243.31 4900.88 6243.31Z" fill="white"/>
</g>
<g opacity="0.61">
<path opacity="0.74" d="M2764.67 3102.29L2795.43 5633.41C2795.81 5664.94 2770.56 5690.81 2739.04 5691.19L1218.29 5709.66C1186.76 5710.04 1160.89 5684.79 1160.51 5653.27L1129.77 3122.15C1129.39 3090.62 1154.64 3064.75 1186.16 3064.37L2706.91 3045.9C2738.42 3045.5 2764.29 3070.75 2764.67 3102.29Z" fill="#6D6CD4"/>
<path d="M2770.16 3101.27L2771.99 3251.66L1137.07 3271.52L1135.21 3118.33C1134.84 3088.16 1159.01 3063.39 1189.19 3063.02L2712.01 3044.52C2743.73 3044.14 2769.78 3069.56 2770.16 3101.27Z" fill="#3E479B"/>
<path d="M1247.87 3196.68C1229.31 3196.83 1214.09 3181.83 1213.95 3163.28C1213.82 3144.71 1228.8 3129.5 1247.35 3129.37C1265.9 3129.24 1281.13 3144.21 1281.26 3162.77C1281.4 3181.33 1266.42 3196.55 1247.87 3196.68ZM1247.45 3142.82C1236.31 3142.9 1227.32 3152.03 1227.4 3163.16C1227.49 3174.3 1236.61 3183.3 1247.75 3183.21C1258.89 3183.13 1267.88 3174 1267.8 3162.87C1267.72 3151.73 1258.59 3142.73 1247.45 3142.82Z" fill="white"/>
<path d="M1360.3 3195.83C1341.74 3195.96 1326.52 3180.99 1326.38 3162.43C1326.25 3143.86 1341.23 3128.65 1359.78 3128.52C1378.33 3128.39 1393.54 3143.37 1393.69 3161.92C1393.83 3180.47 1378.85 3195.68 1360.3 3195.83ZM1359.88 3141.97C1348.74 3142.05 1339.75 3151.18 1339.83 3162.32C1339.92 3173.46 1349.04 3182.45 1360.18 3182.37C1371.32 3182.28 1380.31 3173.16 1380.23 3162.02C1380.15 3150.88 1371.02 3141.89 1359.88 3141.97Z" fill="white"/>
<path d="M1469.62 3195C1451.06 3195.13 1435.84 3180.16 1435.7 3161.6C1435.57 3143.03 1450.55 3127.82 1469.1 3127.69C1487.65 3127.56 1502.88 3142.54 1503.01 3161.09C1503.16 3179.66 1488.17 3194.87 1469.62 3195ZM1469.2 3141.14C1458.06 3141.22 1449.07 3150.35 1449.15 3161.49C1449.24 3172.62 1458.36 3181.62 1469.5 3181.54C1480.64 3181.45 1489.63 3172.33 1489.55 3161.19C1489.47 3150.05 1480.34 3141.06 1469.2 3141.14Z" fill="white"/>
<path d="M2032.7 3505.12L1277.17 3510.84C1269.74 3510.89 1263.66 3504.92 1263.61 3497.47C1263.56 3490.03 1269.53 3483.96 1276.98 3483.91L2032.5 3478.19C2039.93 3478.14 2046.02 3484.11 2046.07 3491.56C2046.12 3499 2040.13 3505.07 2032.7 3505.12Z" fill="white"/>
<path d="M2284.54 3503.21L2127.72 3504.39C2120.29 3504.44 2114.21 3498.47 2114.16 3491.02C2114.11 3483.58 2120.07 3477.51 2127.52 3477.46L2284.34 3476.28C2291.77 3476.23 2297.85 3482.2 2297.9 3489.64C2297.95 3497.09 2291.98 3503.16 2284.54 3503.21Z" fill="#3E479B"/>
<path d="M2037.44 4132.36L1281.91 4138.08C1274.48 4138.13 1268.39 4132.16 1268.34 4124.71C1268.29 4117.27 1274.26 4111.2 1281.71 4111.15L2037.24 4105.43C2044.67 4105.38 2050.75 4111.35 2050.8 4118.8C2050.85 4126.24 2044.88 4132.31 2037.44 4132.36Z" fill="white"/>
<path d="M2289.29 4130.45L2132.48 4131.63C2125.05 4131.68 2118.96 4125.71 2118.91 4118.26C2118.86 4110.82 2124.83 4104.75 2132.28 4104.7L2289.09 4103.52C2296.53 4103.47 2302.61 4109.44 2302.66 4116.88C2302.71 4124.33 2296.72 4130.4 2289.29 4130.45Z" fill="#599AF2"/>
<path d="M2034.96 3804.49L1279.43 3810.2C1272 3810.25 1265.92 3804.29 1265.87 3796.84C1265.82 3789.39 1271.79 3783.32 1279.23 3783.27L2034.76 3777.55C2042.19 3777.51 2048.28 3783.47 2048.33 3790.92C2048.38 3798.35 2042.39 3804.42 2034.96 3804.49Z" fill="#599AF2"/>
<path d="M2286.82 3802.57L2130 3803.75C2122.57 3803.8 2116.49 3797.84 2116.44 3790.39C2116.39 3782.94 2122.36 3776.87 2129.8 3776.82L2286.62 3775.64C2294.05 3775.59 2300.13 3781.56 2300.18 3789.01C2300.23 3796.46 2294.25 3802.52 2286.82 3802.57Z" fill="white"/>
<path d="M2544.99 3800.61L2388.18 3801.79C2380.74 3801.84 2374.66 3795.88 2374.61 3788.43C2374.56 3780.98 2380.54 3774.91 2387.98 3774.86L2544.79 3773.68C2552.22 3773.63 2558.31 3779.6 2558.35 3787.05C2558.4 3794.5 2552.42 3800.56 2544.99 3800.61Z" fill="#3E479B"/>
<path d="M1781.96 3654.34L1278.27 3658.14C1270.84 3658.19 1264.75 3652.23 1264.7 3644.78C1264.65 3637.33 1270.62 3631.26 1278.07 3631.21L1781.76 3627.41C1789.19 3627.36 1795.28 3633.32 1795.32 3640.77C1795.37 3648.2 1789.41 3654.27 1781.96 3654.34Z" fill="#3E479B"/>
<path d="M2095.59 3651.96L1874.63 3653.64C1867.2 3653.69 1861.11 3647.72 1861.06 3640.27C1861.01 3632.83 1866.98 3626.76 1874.43 3626.71L2095.39 3625.03C2102.83 3624.98 2108.91 3630.95 2108.96 3638.4C2109.01 3645.83 2103.03 3651.89 2095.59 3651.96Z" fill="#F7A9B4"/>
<path d="M2097.97 3967.42L1594.28 3971.22C1586.85 3971.27 1580.76 3965.31 1580.71 3957.86C1580.66 3950.41 1586.63 3944.34 1594.08 3944.29L2097.77 3940.49C2105.2 3940.44 2111.28 3946.4 2111.33 3953.85C2111.4 3961.28 2105.41 3967.35 2097.97 3967.42Z" fill="#3E479B"/>
<path d="M1501.63 3971.92L1280.68 3973.6C1273.25 3973.65 1267.17 3967.68 1267.12 3960.24C1267.07 3952.79 1273.04 3946.72 1280.48 3946.67L1501.43 3944.99C1508.86 3944.94 1514.95 3950.91 1515 3958.36C1515.05 3965.81 1509.06 3971.87 1501.63 3971.92Z" fill="#F7A9B4"/>
<path d="M2039.05 4343.82L1283.53 4349.54C1276.1 4349.59 1270.01 4343.62 1269.96 4336.17C1269.91 4328.72 1275.88 4322.66 1283.33 4322.61L2038.85 4316.89C2046.29 4316.84 2052.37 4322.8 2052.42 4330.25C2052.47 4337.7 2046.48 4343.75 2039.05 4343.82Z" fill="#F7A9B4"/>
<path d="M2290.89 4341.91L2134.07 4343.09C2126.64 4343.14 2120.56 4337.17 2120.51 4329.72C2120.46 4322.27 2126.43 4316.21 2133.87 4316.16L2290.69 4314.97C2298.12 4314.93 2304.2 4320.89 2304.25 4328.34C2304.3 4335.79 2298.32 4341.86 2290.89 4341.91Z" fill="#3E479B"/>
<path d="M2043.79 4971.04L1288.26 4976.76C1280.83 4976.81 1274.75 4970.84 1274.7 4963.4C1274.65 4955.95 1280.61 4949.88 1288.06 4949.83L2043.59 4944.11C2051.02 4944.06 2057.1 4950.03 2057.15 4957.48C2057.2 4964.93 2051.22 4970.99 2043.79 4971.04Z" fill="white"/>
<path d="M2295.65 4969.15L2138.83 4970.33C2131.4 4970.38 2125.32 4964.41 2125.27 4956.96C2125.22 4949.51 2131.18 4943.45 2138.63 4943.4L2295.45 4942.22C2302.88 4942.17 2308.96 4948.13 2309.01 4955.58C2309.06 4963.01 2303.08 4969.08 2295.65 4969.15Z" fill="#599AF2"/>
<path d="M2041.31 4643.18L1285.78 4648.9C1278.35 4648.95 1272.27 4642.98 1272.22 4635.54C1272.17 4628.09 1278.14 4622.02 1285.58 4621.97L2041.11 4616.25C2048.54 4616.2 2054.63 4622.17 2054.68 4629.62C2054.73 4637.05 2048.74 4643.12 2041.31 4643.18Z" fill="#599AF2"/>
<path d="M2293.15 4641.27L2136.34 4642.45C2128.91 4642.5 2122.82 4636.53 2122.77 4629.09C2122.72 4621.64 2128.71 4615.57 2136.14 4615.52L2292.95 4614.34C2300.38 4614.29 2306.47 4620.26 2306.52 4627.71C2306.59 4635.15 2300.6 4641.22 2293.15 4641.27Z" fill="white"/>
<path d="M2551.34 4639.31L2394.53 4640.49C2387.1 4640.54 2381.01 4634.57 2380.96 4627.12C2380.91 4619.68 2386.88 4613.61 2394.33 4613.56L2551.12 4612.38C2558.56 4612.33 2564.64 4618.3 2564.69 4625.74C2564.76 4633.19 2558.77 4639.26 2551.34 4639.31Z" fill="#3E479B"/>
<path d="M1788.31 4493.02L1284.62 4496.83C1277.19 4496.88 1271.1 4490.91 1271.05 4483.46C1271.01 4476.01 1276.99 4469.94 1284.42 4469.89L1788.11 4466.09C1795.54 4466.04 1801.63 4472.01 1801.68 4479.45C1801.73 4486.9 1795.74 4492.97 1788.31 4493.02Z" fill="#3E479B"/>
<path d="M2101.94 4490.64L1880.97 4492.32C1873.54 4492.37 1867.46 4486.4 1867.41 4478.96C1867.36 4471.51 1873.32 4465.44 1880.77 4465.39L2101.74 4463.71C2109.17 4463.66 2115.25 4469.63 2115.3 4477.08C2115.35 4484.52 2109.37 4490.59 2101.94 4490.64Z" fill="#F7A9B4"/>
<path d="M2104.32 4806.1L1600.63 4809.91C1593.2 4809.96 1587.11 4803.99 1587.06 4796.54C1587.01 4789.09 1593 4783.03 1600.43 4782.98L2104.12 4779.17C2111.55 4779.12 2117.63 4785.09 2117.68 4792.53C2117.73 4799.98 2111.77 4806.05 2104.32 4806.1Z" fill="#3E479B"/>
<path d="M1507.97 4810.62L1287.02 4812.3C1279.59 4812.35 1273.5 4806.38 1273.45 4798.93C1273.4 4791.49 1279.37 4785.42 1286.82 4785.37L1507.77 4783.69C1515.2 4783.64 1521.28 4789.61 1521.33 4797.06C1521.4 4804.49 1515.42 4810.55 1507.97 4810.62Z" fill="#F7A9B4"/>
<path d="M2045.26 5164.99L1289.73 5170.71C1282.3 5170.76 1276.21 5164.79 1276.16 5157.35C1276.11 5149.9 1282.08 5143.83 1289.53 5143.78L2045.06 5138.06C2052.49 5138.01 2058.57 5143.98 2058.62 5151.43C2058.69 5158.88 2052.7 5164.94 2045.26 5164.99Z" fill="#F7A9B4"/>
<path d="M2297.11 5163.1L2140.29 5164.28C2132.86 5164.33 2126.78 5158.36 2126.73 5150.91C2126.68 5143.47 2132.66 5137.4 2140.09 5137.35L2296.91 5136.17C2304.34 5136.12 2310.42 5142.09 2310.47 5149.53C2310.52 5156.97 2304.54 5163.03 2297.11 5163.1Z" fill="#3E479B"/>
<path d="M2300.1 5559.15L2143.28 5560.33C2135.85 5560.38 2129.77 5554.41 2129.72 5546.96C2129.67 5539.52 2135.65 5533.45 2143.08 5533.4L2299.9 5532.22C2307.33 5532.17 2313.41 5538.14 2313.46 5545.58C2313.51 5553.02 2307.55 5559.08 2300.1 5559.15Z" fill="white"/>
<path d="M2558.29 5557.19L2401.47 5558.37C2394.04 5558.42 2387.96 5552.45 2387.91 5545C2387.86 5537.55 2393.84 5531.49 2401.27 5531.44L2558.09 5530.26C2565.52 5530.21 2571.6 5536.17 2571.65 5543.62C2571.7 5551.07 2565.72 5557.14 2558.29 5557.19Z" fill="#3E479B"/>
<path d="M1794.53 5314.21L1290.84 5318.02C1283.41 5318.07 1277.32 5312.1 1277.27 5304.65C1277.22 5297.2 1283.19 5291.14 1290.64 5291.09L1794.33 5287.28C1801.76 5287.23 1807.85 5293.2 1807.9 5300.65C1807.95 5308.09 1801.96 5314.16 1794.53 5314.21Z" fill="#3E479B"/>
<path d="M2108.16 5311.83L1887.19 5313.51C1879.76 5313.56 1873.68 5307.59 1873.63 5300.15C1873.58 5292.7 1879.54 5286.63 1886.99 5286.58L2107.96 5284.9C2115.39 5284.85 2121.47 5290.82 2121.52 5298.27C2121.57 5305.72 2115.59 5311.78 2108.16 5311.83Z" fill="#F7A9B4"/>
</g>
<path d="M2549.76 1811.62L2549.91 2146.28L2549.94 2223.99L2550.36 3153.03L2551.15 4970.91L2551.57 5899.92L2551.6 5977.64L2551.7 6203.7C2551.75 6305.8 2616.17 6392.61 2706.46 6426.44C2732.47 6436.18 2760.53 6441.77 2789.96 6441.75L2959.69 6441.67L4828.69 6440.85C4878.65 6440.84 4924.96 6425.36 4963.25 6399.06C5025.75 6356.12 5066.78 6284.17 5066.75 6202.6L5064.82 1810.52C5064.79 1737.33 5031.67 1671.93 4979.69 1628.26C4938.26 1593.46 4884.88 1572.45 4826.56 1572.46L2787.83 1573.36C2656.27 1573.41 2549.69 1680.09 2549.76 1811.62Z" fill="#4C65BA"/>
<path d="M2567.2 1894.84L2567.34 2218.61L2567.38 2293.8L2567.78 3192.59L2568.56 4951.34L2568.96 5850.14L2568.99 5925.33L2569.09 6144.02C2569.14 6242.8 2632.66 6326.8 2721.7 6359.51C2747.35 6368.94 2775.03 6374.34 2804.04 6374.32L2971.42 6374.24L4814.56 6373.43C4863.83 6373.41 4909.5 6358.45 4947.25 6333C5008.89 6291.45 5049.36 6221.83 5049.32 6142.92L5047.46 1893.72C5047.43 1822.91 5014.78 1759.63 4963.51 1717.39C4922.67 1683.73 4870.02 1663.4 4812.5 1663.43L2801.98 1664.31C2672.24 1664.38 2567.15 1767.58 2567.2 1894.84Z" fill="#3E479B"/>
<path d="M4933.54 2241.71L4935.11 5771.49C4935.12 5803.02 4909.57 5828.59 4878.04 5828.61L2740.07 5829.55C2708.54 5829.57 2682.97 5804.02 2682.95 5772.48L2681.41 2242.71C2681.39 2211.17 2706.94 2185.61 2738.48 2185.59L4876.42 2184.64C4907.96 2184.64 4933.53 2210.19 4933.54 2241.71Z" fill="white"/>
<path d="M4933.54 2240.25L4933.64 2469.1L2681.51 2470.09L2681.41 2238.44C2681.39 2208.27 2705.84 2183.78 2736.03 2183.76L4876.07 2182.81C4907.79 2182.81 4933.53 2208.52 4933.54 2240.25Z" fill="#599AF2"/>
<path d="M4655.52 2294.01C4650.93 2294.01 4647.21 2290.29 4647.21 2285.7C4647.21 2281.11 4650.93 2277.39 4655.52 2277.39L4824.46 2277.32C4829.04 2277.32 4832.77 2281.05 4832.77 2285.63C4832.77 2290.22 4829.04 2293.95 4824.46 2293.95L4655.52 2294.01Z" fill="white"/>
<path d="M4655.54 2337.17C4650.95 2337.17 4647.23 2333.45 4647.23 2328.86C4647.23 2324.27 4650.95 2320.54 4655.54 2320.54L4824.47 2320.48C4829.06 2320.48 4832.78 2324.2 4832.78 2328.79C4832.78 2333.38 4829.06 2337.1 4824.47 2337.1L4655.54 2337.17Z" fill="white"/>
<path d="M4655.55 2380.33C4650.97 2380.33 4647.24 2376.6 4647.24 2372.01C4647.24 2367.43 4650.97 2363.7 4655.55 2363.7L4824.49 2363.63C4829.08 2363.63 4832.8 2367.36 4832.8 2371.95C4832.8 2376.53 4829.08 2380.26 4824.49 2380.26L4655.55 2380.33Z" fill="white"/>
<path d="M2882.77 2407.84C2880.64 2407.84 2878.52 2407.02 2876.89 2405.41L2815.51 2344.08C2810.23 2338.8 2810.23 2330.19 2815.51 2324.9L2874.48 2265.88C2877.72 2262.64 2882.99 2262.64 2886.23 2265.88C2889.47 2269.13 2889.47 2274.4 2886.23 2277.64L2829.43 2334.49L2888.66 2393.66C2891.9 2396.9 2891.9 2402.17 2888.66 2405.41C2887.01 2407.02 2884.9 2407.84 2882.77 2407.84Z" fill="white"/>
<path d="M3809.45 1973.4C3775.83 1973.4 3748.49 1946.07 3748.47 1912.46C3748.45 1878.84 3775.78 1851.48 3809.41 1851.46C3843.03 1851.46 3870.39 1878.79 3870.41 1912.41C3870.42 1946.02 3843.09 1973.39 3809.46 1973.4C3809.46 1973.4 3809.46 1973.4 3809.45 1973.4ZM3809.45 1877.3C3809.43 1877.3 3809.43 1877.3 3809.43 1877.3C3790.06 1877.32 3774.3 1893.07 3774.32 1912.46C3774.34 1931.83 3790.08 1947.57 3809.46 1947.57C3809.48 1947.57 3809.48 1947.57 3809.5 1947.57C3818.87 1947.57 3827.7 1943.89 3834.33 1937.26C3840.96 1930.61 3844.61 1921.8 3844.61 1912.41C3844.61 1903.03 3840.93 1894.21 3834.3 1887.57C3827.65 1880.94 3818.82 1877.3 3809.45 1877.3Z" fill="white"/>
<path d="M3751.46 6267.62C3729.89 6267.62 3712.32 6250.06 3712.32 6228.5L3712.27 6112.96C3712.26 6091.4 3729.8 6073.85 3751.37 6073.83L3866.94 6073.78C3888.52 6073.78 3906.08 6091.33 3906.08 6112.9L3906.13 6228.45C3906.14 6250.01 3888.6 6267.57 3867.03 6267.58L3751.46 6267.62ZM3866.93 6090.4L3751.37 6090.45C3738.97 6090.47 3728.88 6100.56 3728.9 6112.96L3728.95 6228.5C3728.95 6240.9 3739.05 6250.99 3751.46 6250.99L3867.01 6250.94C3879.41 6250.92 3889.5 6240.85 3889.49 6228.43L3889.44 6112.88C3889.44 6100.49 3879.33 6090.4 3866.93 6090.4Z" fill="white"/>
<path d="M3055.41 6109.27C3050.83 6109.27 3047.1 6105.55 3047.1 6100.96C3047.1 6096.37 3050.83 6092.65 3055.41 6092.65L3166.64 6092.6C3171.23 6092.6 3174.96 6096.32 3174.96 6100.91C3174.96 6105.5 3171.23 6109.22 3166.64 6109.22L3055.41 6109.27Z" fill="white"/>
<path d="M3055.43 6169.37C3050.84 6169.37 3047.12 6165.64 3047.12 6161.06C3047.12 6156.47 3050.84 6152.74 3055.43 6152.74L3166.66 6152.69C3171.25 6152.69 3174.97 6156.42 3174.97 6161.01C3174.97 6165.59 3171.25 6169.32 3166.66 6169.32L3055.43 6169.37Z" fill="white"/>
<path d="M3055.46 6230.2C3050.87 6230.2 3047.15 6226.47 3047.15 6221.88C3047.15 6217.29 3050.87 6213.57 3055.46 6213.57L3166.69 6213.52C3171.28 6213.52 3175 6217.25 3175 6221.83C3175 6226.42 3171.28 6230.15 3166.69 6230.15L3055.46 6230.2Z" fill="white"/>
<path d="M4591.22 6267.25C4589.09 6267.25 4586.96 6266.44 4585.35 6264.81L4497.88 6177.4L4583.04 6092.17C4586.28 6088.92 4591.55 6088.92 4594.79 6092.17C4598.03 6095.41 4598.03 6100.68 4594.79 6103.92L4521.38 6177.4L4597.1 6253.05C4600.35 6256.29 4600.35 6261.56 4597.1 6264.81C4595.46 6266.44 4593.35 6267.25 4591.22 6267.25Z" fill="white"/>
<path opacity="0.36" d="M4933.79 2473.15H2685.08V3209.63H4933.79V2473.15Z" fill="#599AF2"/>
<path opacity="0.43" d="M3699.96 2804.42L2892.58 2804.77C2879.61 2804.77 2869.11 2794.28 2869.11 2781.31L2869.04 2645.71C2869.04 2632.74 2879.55 2622.24 2892.5 2622.24L3699.87 2621.89C3712.84 2621.89 3723.35 2632.39 3723.35 2645.34L3723.41 2780.95C3723.43 2793.9 3712.92 2804.42 3699.96 2804.42Z" fill="white"/>
<path opacity="0.43" d="M4143.63 2997.72L2892.68 2998.27C2879.71 2998.27 2869.2 2987.78 2869.2 2974.81L2869.19 2930.48C2869.19 2917.51 2879.68 2907.01 2892.64 2907.01L4143.6 2906.46C4156.57 2906.46 4167.07 2916.95 4167.07 2929.91L4167.09 2974.25C4167.09 2987.2 4156.58 2997.72 4143.63 2997.72Z" fill="white"/>
<path opacity="0.43" d="M4656.85 2982.68C4610.75 2982.68 4567.39 2964.74 4534.78 2932.16C4502.14 2899.54 4484.16 2856.19 4484.14 2810.05C4484.11 2763.92 4502.06 2720.55 4534.66 2687.92C4567.26 2655.28 4610.62 2637.31 4656.76 2637.28C4656.76 2637.28 4656.81 2637.28 4656.85 2637.28C4702.95 2637.28 4746.28 2655.22 4778.9 2687.82C4811.53 2720.42 4829.52 2763.77 4829.54 2809.9C4829.57 2856.04 4811.62 2899.41 4779.02 2932.06C4746.42 2964.69 4703.06 2982.66 4656.91 2982.69C4656.91 2982.69 4656.88 2982.68 4656.85 2982.68ZM4656.85 2670.53C4656.81 2670.53 4656.8 2670.53 4656.76 2670.53C4619.53 2670.55 4584.52 2685.06 4558.18 2711.41C4531.85 2737.77 4517.37 2772.78 4517.39 2810.04C4517.41 2847.29 4531.92 2882.3 4558.27 2908.63C4584.62 2934.95 4619.63 2949.45 4656.85 2949.45C4656.85 2949.45 4656.88 2949.45 4656.91 2949.45C4694.15 2949.43 4729.16 2934.92 4755.49 2908.57C4781.83 2882.22 4796.31 2847.19 4796.29 2809.94C4796.27 2772.68 4781.76 2737.67 4755.41 2711.34C4729.08 2685.03 4694.07 2670.53 4656.85 2670.53Z" fill="white"/>
<path d="M3332.02 4000.2L2960.01 4000.37C2918.18 4000.38 2884.27 3966.5 2884.25 3924.68L2884.09 3552.67C2884.07 3510.84 2917.95 3476.93 2959.78 3476.91L3331.79 3476.74C3373.61 3476.73 3407.53 3510.61 3407.54 3552.43L3407.71 3924.45C3407.73 3966.27 3373.85 4000.18 3332.02 4000.2Z" fill="#4C65BA"/>
<g opacity="0.36">
<path d="M3258.87 3741.08C3258.91 3803.47 3208.35 3854.08 3145.96 3854.09C3083.57 3854.13 3032.97 3803.57 3032.95 3741.18C3032.92 3678.79 3083.47 3628.19 3145.86 3628.17C3208.24 3628.14 3258.84 3678.69 3258.87 3741.08Z" fill="#599AF2"/>
</g>
<g opacity="0.26">
<path d="M3812.06 3652.04L3517.69 3652.18C3507.24 3652.18 3498.76 3643.72 3498.76 3633.26L3498.73 3577.22C3498.73 3566.76 3507.19 3558.3 3517.64 3558.29L3812.01 3558.15C3822.46 3558.15 3830.94 3566.61 3830.94 3577.07L3830.97 3633.11C3830.97 3643.55 3822.51 3652.03 3812.06 3652.04Z" fill="#3E479B"/>
<path d="M3498.83 3796.46C3489.65 3796.46 3482.22 3789.03 3482.2 3779.85C3482.2 3770.67 3489.63 3763.22 3498.81 3763.21L4065.74 3762.96C4074.92 3762.96 4082.36 3770.39 4082.36 3779.57C4082.36 3788.74 4074.93 3796.19 4065.76 3796.21L3498.83 3796.46Z" fill="#3E479B"/>
<path d="M3498.87 3915.09C3489.7 3915.09 3482.25 3907.66 3482.25 3898.48C3482.25 3889.3 3489.68 3881.84 3498.86 3881.84L4423.28 3881.44C4432.46 3881.44 4439.91 3888.87 4439.91 3898.05C4439.91 3907.22 4432.48 3914.69 4423.28 3914.69L3498.87 3915.09Z" fill="#3E479B"/>
<path d="M4192.15 3796.16C4182.97 3796.16 4175.52 3788.73 4175.52 3779.55C4175.52 3770.37 4182.95 3762.91 4192.15 3762.91L4759.08 3762.66C4768.25 3762.66 4775.7 3770.09 4775.7 3779.27C4775.7 3788.44 4768.27 3795.91 4759.08 3795.91L4192.15 3796.16Z" fill="#3E479B"/>
</g>
<path d="M3332.68 5523.08L2960.67 5523.24C2918.85 5523.26 2884.93 5489.38 2884.92 5447.55L2884.75 5075.54C2884.73 5033.71 2918.61 4999.8 2960.44 4999.79L3332.45 4999.62C3374.28 4999.6 3408.19 5033.48 3408.21 5075.31L3408.37 5447.32C3408.41 5489.13 3374.51 5523.04 3332.68 5523.08Z" fill="#599AF2"/>
<g opacity="0.57">
<path d="M3259.54 5263.94C3259.57 5326.33 3209.02 5376.93 3146.63 5376.95C3084.24 5376.98 3033.65 5326.43 3033.62 5264.04C3033.58 5201.65 3084.14 5151.05 3146.53 5151.03C3208.92 5151.01 3259.5 5201.57 3259.54 5263.94Z" fill="#3E479B"/>
</g>
<g opacity="0.26">
<path d="M3812.73 5174.9L3518.37 5175.04C3507.92 5175.04 3499.44 5166.57 3499.44 5156.12L3499.42 5100.08C3499.42 5089.62 3507.88 5081.16 3518.34 5081.14L3812.72 5081.01C3823.17 5081.01 3831.64 5089.47 3831.65 5099.93L3831.69 5155.97C3831.65 5166.42 3823.17 5174.9 3812.73 5174.9Z" fill="#3E479B"/>
<path d="M3499.49 5319.32C3490.31 5319.32 3482.87 5311.88 3482.87 5302.69C3482.87 5293.52 3490.3 5286.07 3499.49 5286.07L4066.42 5285.82H4066.44C4075.61 5285.82 4083.06 5293.25 4083.06 5302.44C4083.06 5311.62 4075.63 5319.07 4066.44 5319.07L3499.49 5319.32Z" fill="#3E479B"/>
<path d="M3499.54 5437.96C3490.36 5437.96 3482.91 5430.53 3482.91 5421.34C3482.91 5412.16 3490.34 5404.71 3499.54 5404.71L4423.97 5404.31C4433.14 5404.31 4440.59 5411.74 4440.59 5420.94C4440.59 5430.11 4433.16 5437.56 4423.97 5437.56L3499.54 5437.96Z" fill="#3E479B"/>
<path d="M4192.81 5319.01C4183.64 5319.01 4176.19 5311.58 4176.19 5302.39C4176.19 5293.21 4183.62 5285.77 4192.81 5285.77L4759.74 5285.52C4768.92 5285.52 4776.36 5292.95 4776.36 5302.14C4776.36 5311.32 4768.93 5318.77 4759.74 5318.77L4192.81 5319.01Z" fill="#3E479B"/>
</g>
<path d="M3332.36 4759.87L2960.34 4760.03C2918.52 4760.05 2884.6 4726.17 2884.59 4684.34L2884.42 4312.33C2884.41 4270.51 2918.28 4236.59 2960.11 4236.58L3332.12 4236.41C3373.95 4236.39 3407.86 4270.27 3407.88 4312.1L3408.04 4684.11C3408.06 4725.94 3374.18 4759.85 3332.36 4759.87Z" fill="#F7A9B4"/>
<path opacity="0.43" d="M3259.21 4500.75C3259.24 4563.14 3208.69 4613.74 3146.3 4613.76C3083.91 4613.79 3033.32 4563.24 3033.29 4500.85C3033.26 4438.46 3083.81 4387.85 3146.2 4387.84C3208.57 4387.8 3259.18 4438.36 3259.21 4500.75Z" fill="white"/>
<g opacity="0.26">
<path d="M3812.39 4411.71L3518.01 4411.84C3507.56 4411.84 3499.08 4403.38 3499.08 4392.93L3499.06 4336.89C3499.06 4326.43 3507.52 4317.97 3517.98 4317.95L3812.36 4317.82C3822.82 4317.82 3831.28 4326.28 3831.29 4336.74L3831.31 4392.78C3831.31 4403.23 3822.85 4411.71 3812.39 4411.71Z" fill="#3E479B"/>
<path d="M3499.16 4556.12C3489.99 4556.12 3482.54 4548.69 3482.54 4539.5C3482.54 4530.32 3489.97 4522.88 3499.15 4522.88L3761.36 4522.76H3761.37C3770.55 4522.76 3778 4530.19 3778 4539.38C3778 4548.56 3770.57 4556.01 3761.39 4556.01L3499.16 4556.12Z" fill="#3E479B"/>
<path d="M3499.21 4674.77C3490.03 4674.77 3482.6 4667.34 3482.59 4658.14C3482.57 4648.97 3490.02 4641.52 3499.19 4641.52L4037.23 4641.27C4046.41 4641.27 4053.85 4648.7 4053.85 4657.9C4053.87 4667.07 4046.42 4674.52 4037.25 4674.52L3499.21 4674.77Z" fill="#3E479B"/>
<path d="M3871.09 4555.97C3861.92 4555.97 3854.47 4548.54 3854.47 4539.35C3854.47 4530.17 3861.9 4522.73 3871.08 4522.73L4394.68 4522.49C4403.86 4522.49 4411.31 4529.92 4411.31 4539.12C4411.31 4548.29 4403.88 4555.74 4394.68 4555.74L3871.09 4555.97Z" fill="#3E479B"/>
<path d="M4492.19 4555.69C4483.02 4555.69 4475.57 4548.26 4475.57 4539.07C4475.57 4529.89 4483 4522.44 4492.19 4522.44L4754.42 4522.33C4763.6 4522.33 4771.05 4529.76 4771.05 4538.95C4771.05 4548.13 4763.61 4555.57 4754.42 4555.57L4492.19 4555.69Z" fill="#3E479B"/>
</g>
<path opacity="0.39" d="M6641.52 4767.86L6663.28 6558.7C6663.67 6590.24 6638.41 6616.1 6606.9 6616.49L5543.69 6629.4C5512.16 6629.78 5486.29 6604.53 5485.91 6573.01L5464.14 4782.18C5463.76 4750.64 5489.01 4724.77 5520.53 4724.39L6583.74 4711.47C6615.27 4711.09 6641.14 4736.34 6641.52 4767.86Z" fill="white"/>
<path opacity="0.39" d="M6641.52 4767.86L6663.28 6558.7C6663.67 6590.24 6638.41 6616.1 6606.9 6616.49L5543.69 6629.4C5512.16 6629.78 5486.29 6604.53 5485.91 6573.01L5464.14 4782.18C5463.76 4750.64 5489.01 4724.77 5520.53 4724.39L6583.74 4711.47C6615.27 4711.09 6641.14 4736.34 6641.52 4767.86Z" fill="#F7A9B4"/>
<path d="M6645.46 4767.25L6646.58 4859.46L5469.2 4873.76L5468.05 4778.73C5467.69 4748.56 5491.86 4723.79 5522.03 4723.43L6587.31 4710.48C6619.05 4710.11 6645.08 4735.51 6645.46 4767.25Z" fill="#F7A9B4"/>
<path d="M5548.99 4819.86C5535.63 4819.96 5524.67 4809.17 5524.57 4795.81C5524.47 4782.44 5535.26 4771.49 5548.63 4771.39C5561.99 4771.29 5572.95 4782.08 5573.05 4795.44C5573.15 4808.81 5562.36 4819.76 5548.99 4819.86ZM5548.69 4781.08C5540.68 4781.15 5534.2 4787.71 5534.26 4795.72C5534.33 4803.74 5540.9 4810.22 5548.93 4810.15C5556.94 4810.09 5563.42 4803.52 5563.35 4795.49C5563.29 4787.5 5556.72 4781.03 5548.69 4781.08Z" fill="white"/>
<path d="M5629.95 4819.25C5616.59 4819.35 5605.63 4808.56 5605.53 4795.19C5605.43 4781.83 5616.22 4770.87 5629.59 4770.77C5642.95 4770.67 5653.91 4781.46 5654.01 4794.83C5654.11 4808.19 5643.32 4819.15 5629.95 4819.25ZM5629.67 4780.46C5621.64 4780.53 5615.17 4787.1 5615.24 4795.13C5615.31 4803.14 5621.87 4809.62 5629.9 4809.56C5637.92 4809.49 5644.4 4802.92 5644.33 4794.89C5644.27 4786.88 5637.68 4780.41 5629.67 4780.46Z" fill="white"/>
<path d="M5708.69 4818.67C5695.32 4818.77 5684.37 4807.98 5684.27 4794.61C5684.17 4781.25 5694.96 4770.29 5708.32 4770.19C5721.69 4770.09 5732.64 4780.88 5732.74 4794.24C5732.84 4807.61 5722.05 4818.55 5708.69 4818.67ZM5708.4 4779.88C5700.37 4779.95 5693.91 4786.51 5693.97 4794.53C5694.04 4802.54 5700.61 4809.02 5708.64 4808.96C5716.65 4808.89 5723.13 4802.32 5723.07 4794.31C5722.98 4786.28 5716.42 4779.82 5708.4 4779.88Z" fill="white"/>
<path d="M6114.19 5041.99L5570.1 5046.12C5564.75 5046.17 5560.38 5041.86 5560.33 5036.49C5560.3 5031.14 5564.6 5026.77 5569.95 5026.72L6114.06 5022.59C6119.41 5022.54 6123.78 5026.85 6123.83 5032.22C6123.85 5037.57 6119.54 5041.94 6114.19 5041.99Z" fill="white"/>
<path d="M6295.56 5040.61L6182.63 5041.48C6177.28 5041.51 6172.91 5037.2 6172.86 5031.85C6172.81 5026.5 6177.13 5022.13 6182.49 5022.08L6295.41 5021.23C6300.77 5021.18 6305.14 5025.48 6305.19 5030.85C6305.22 5036.21 6300.91 5040.58 6295.56 5040.61Z" fill="white"/>
<path d="M6117.62 5493.7L5573.53 5497.82C5568.18 5497.86 5563.81 5493.57 5563.76 5488.2C5563.71 5482.84 5568.03 5478.47 5573.38 5478.42L6117.47 5474.3C6122.82 5474.25 6127.2 5478.56 6127.25 5483.92C6127.28 5489.29 6122.97 5493.65 6117.62 5493.7Z" fill="white"/>
<path d="M6298.98 5492.32L6186.06 5493.18C6180.7 5493.22 6176.33 5488.91 6176.28 5483.56C6176.25 5478.21 6180.55 5473.83 6185.91 5473.78L6298.83 5472.94C6304.19 5472.89 6308.56 5477.19 6308.61 5482.56C6308.64 5487.91 6304.34 5492.29 6298.98 5492.32Z" fill="white"/>
<path d="M6115.82 5257.57L5571.74 5261.7C5566.38 5261.73 5562.01 5257.42 5561.96 5252.07C5561.91 5246.72 5566.23 5242.34 5571.59 5242.3L6115.67 5238.17C6121.03 5238.14 6125.4 5242.43 6125.45 5247.8C6125.48 5253.17 6121.18 5257.54 6115.82 5257.57Z" fill="white"/>
<path d="M6297.19 5256.19L6184.27 5257.06C6178.91 5257.09 6174.54 5252.78 6174.49 5247.43C6174.46 5242.08 6178.76 5237.71 6184.12 5237.66L6297.04 5236.81C6302.4 5236.78 6306.77 5241.06 6306.82 5246.43C6306.85 5251.79 6302.55 5256.16 6297.19 5256.19Z" fill="white"/>
<path d="M6483.12 5254.8L6370.19 5255.64C6364.84 5255.68 6360.46 5251.39 6360.41 5246.02C6360.36 5240.67 6364.69 5236.29 6370.04 5236.24L6482.97 5235.38C6488.32 5235.35 6492.69 5239.65 6492.74 5245C6492.79 5250.39 6488.47 5254.76 6483.12 5254.8Z" fill="white"/>
<path d="M5933.62 5149.45L5570.88 5152.19C5565.53 5152.23 5561.16 5147.92 5561.11 5142.57C5561.08 5137.21 5565.38 5132.84 5570.73 5132.79L5933.47 5130.05C5938.82 5130 5943.2 5134.31 5943.25 5139.67C5943.3 5145.04 5938.99 5149.4 5933.62 5149.45Z" fill="white"/>
<path d="M6159.48 5147.74L6000.35 5148.95C5995 5148.99 5990.63 5144.68 5990.58 5139.33C5990.55 5133.97 5994.85 5129.6 6000.2 5129.55L6159.33 5128.34C6164.68 5128.3 6169.05 5132.61 6169.1 5137.96C6169.15 5143.33 6164.85 5147.71 6159.48 5147.74Z" fill="white"/>
<path d="M6161.21 5374.9L5798.47 5377.65C5793.12 5377.7 5788.75 5373.39 5788.7 5368.02C5788.65 5362.67 5792.97 5358.3 5798.32 5358.25L6161.06 5355.5C6166.41 5355.47 6170.78 5359.76 6170.83 5365.13C6170.86 5370.5 6166.56 5374.87 6161.21 5374.9Z" fill="white"/>
<path d="M5731.74 5378.16L5572.62 5379.36C5567.27 5379.41 5562.89 5375.1 5562.84 5369.74C5562.81 5364.38 5567.12 5360.01 5572.47 5359.96L5731.59 5358.76C5736.95 5358.73 5741.32 5363.04 5741.37 5368.39C5741.4 5373.76 5737.1 5378.13 5731.74 5378.16Z" fill="white"/>
<path d="M6118.77 5645.98L5574.68 5650.1C5569.33 5650.13 5564.96 5645.83 5564.91 5640.47C5564.87 5635.12 5569.18 5630.75 5574.53 5630.7L6118.62 5626.58C6123.97 5626.54 6128.34 5630.83 6128.39 5636.2C6128.43 5641.57 6124.12 5645.94 6118.77 5645.98Z" fill="white"/>
<path d="M6300.13 5644.61L6187.21 5645.46C6181.85 5645.49 6177.48 5641.19 6177.43 5635.84C6177.38 5630.48 6181.7 5626.11 6187.06 5626.06L6299.98 5625.21C6305.34 5625.18 6309.71 5629.49 6309.76 5634.84C6309.79 5640.19 6305.48 5644.56 6300.13 5644.61Z" fill="white"/>
<path d="M6122.19 6097.67L5578.1 6101.79C5572.75 6101.82 5568.38 6097.53 5568.33 6092.16C5568.28 6086.81 5572.6 6082.44 5577.95 6082.39L6122.06 6078.27C6127.41 6078.23 6131.78 6082.54 6131.83 6087.89C6131.85 6093.26 6127.54 6097.63 6122.19 6097.67Z" fill="white"/>
<path d="M6303.55 6096.3L6190.63 6097.15C6185.27 6097.2 6180.9 6092.89 6180.85 6087.53C6180.82 6082.17 6185.12 6077.8 6190.48 6077.75L6303.4 6076.9C6308.76 6076.87 6313.13 6081.16 6313.18 6086.53C6313.21 6091.9 6308.91 6096.27 6303.55 6096.3Z" fill="white"/>
<path d="M6120.39 5861.56L5576.31 5865.68C5570.95 5865.71 5566.58 5861.41 5566.53 5856.05C5566.48 5850.7 5570.8 5846.33 5576.16 5846.28L6120.24 5842.16C6125.6 5842.12 6129.97 5846.41 6130.02 5851.78C6130.07 5857.15 6125.75 5861.52 6120.39 5861.56Z" fill="white"/>
<path d="M6301.76 5860.19L6188.84 5861.04C6183.48 5861.07 6179.11 5856.79 6179.06 5851.42C6179.03 5846.06 6183.33 5841.69 6188.69 5841.64L6301.61 5840.79C6306.97 5840.76 6311.34 5845.07 6311.39 5850.42C6311.44 5855.79 6307.12 5860.14 6301.76 5860.19Z" fill="white"/>
<path d="M6487.69 5858.78L6374.76 5859.63C6369.41 5859.68 6365.03 5855.37 6364.98 5850C6364.93 5844.65 6369.26 5840.28 6374.61 5840.23L6487.54 5839.38C6492.89 5839.33 6497.26 5843.64 6497.31 5849C6497.36 5854.37 6493.04 5858.75 6487.69 5858.78Z" fill="white"/>
<path d="M5938.2 5753.42L5575.46 5756.16C5570.11 5756.19 5565.74 5751.89 5565.69 5746.53C5565.65 5741.18 5569.96 5736.81 5575.31 5736.76L5938.05 5734.02C5943.4 5733.98 5947.77 5738.29 5947.82 5743.64C5947.87 5749.01 5943.57 5753.38 5938.2 5753.42Z" fill="white"/>
<path d="M6164.05 5751.72L6004.92 5752.92C5999.57 5752.97 5995.2 5748.66 5995.15 5743.29C5995.12 5737.94 5999.42 5733.57 6004.77 5733.52L6163.9 5732.32C6169.25 5732.29 6173.62 5736.59 6173.67 5741.95C6173.72 5747.3 6169.42 5751.67 6164.05 5751.72Z" fill="white"/>
<path d="M6165.78 5978.89L5803.04 5981.63C5797.69 5981.66 5793.32 5977.36 5793.27 5972C5793.23 5966.65 5797.54 5962.28 5802.89 5962.23L6165.63 5959.49C6170.98 5959.44 6175.35 5963.74 6175.4 5969.11C6175.43 5974.48 6171.13 5978.85 6165.78 5978.89Z" fill="white"/>
<path d="M5736.31 5982.15L5577.19 5983.34C5571.84 5983.39 5567.46 5979.09 5567.41 5973.72C5567.38 5968.37 5571.69 5963.99 5577.04 5963.94L5736.16 5962.73C5741.52 5962.7 5745.89 5967 5745.94 5972.36C5745.97 5977.73 5741.67 5982.1 5736.31 5982.15Z" fill="white"/>
<path d="M6123.24 6237.36L5579.13 6241.48C5573.78 6241.51 5569.41 6237.21 5569.36 6231.85C5569.31 6226.5 5573.63 6222.13 5578.98 6222.08L6123.07 6217.96C6128.42 6217.92 6132.8 6222.21 6132.85 6227.58C6132.91 6232.94 6128.59 6237.31 6123.24 6237.36Z" fill="white"/>
<path d="M6304.61 6235.98L6191.68 6236.83C6186.33 6236.86 6181.96 6232.55 6181.91 6227.2C6181.87 6221.85 6186.18 6217.48 6191.53 6217.43L6304.46 6216.58C6309.81 6216.55 6314.18 6220.83 6314.23 6226.2C6314.28 6231.57 6309.96 6235.95 6304.61 6235.98Z" fill="white"/>
<path d="M6306.76 6521.2L6193.84 6522.04C6188.49 6522.09 6184.11 6517.79 6184.06 6512.42C6184.01 6507.06 6188.34 6502.69 6193.69 6502.64L6306.62 6501.8C6311.97 6501.75 6316.34 6506.05 6316.39 6511.42C6316.42 6516.79 6312.12 6521.15 6306.76 6521.2Z" fill="white"/>
<path d="M6492.69 6519.78L6379.76 6520.63C6374.41 6520.66 6370.03 6516.36 6369.98 6511.01C6369.95 6505.65 6374.26 6501.28 6379.61 6501.23L6492.54 6500.38C6497.89 6500.35 6502.26 6504.66 6502.31 6510.01C6502.36 6515.38 6498.04 6519.75 6492.69 6519.78Z" fill="white"/>
<path d="M5942.68 6344.81L5579.95 6347.56C5574.59 6347.61 5570.22 6343.3 5570.17 6337.93C5570.12 6332.58 5574.44 6328.21 5579.8 6328.16L5942.52 6325.41C5947.87 6325.38 5952.24 6329.67 5952.29 6335.04C5952.34 6340.39 5948.04 6344.76 5942.68 6344.81Z" fill="white"/>
<path d="M6168.54 6343.1L6009.42 6344.3C6004.06 6344.33 5999.69 6340.03 5999.64 6334.68C5999.61 6329.32 6003.91 6324.95 6009.27 6324.9L6168.39 6323.7C6173.74 6323.65 6178.12 6327.96 6178.17 6333.33C6178.2 6338.68 6173.89 6343.05 6168.54 6343.1Z" fill="white"/>
<path opacity="0.22" d="M6972.94 2036.76L6994.82 4178.63C6995.14 4210.16 6969.83 4235.98 6938.31 4236.29L5658.15 4249.38C5626.61 4249.69 5600.8 4224.39 5600.48 4192.87L5578.6 2051C5578.29 2019.47 5603.57 1993.65 5635.11 1993.33L6915.27 1980.25C6946.79 1979.94 6972.61 2005.24 6972.94 2036.76Z" fill="#3E479B"/>
<path d="M6896.68 1937.56L6918.56 4079.43C6918.88 4110.97 6893.58 4136.78 6862.06 4137.1L5581.89 4150.17C5550.36 4150.48 5524.54 4125.18 5524.22 4093.66L5502.35 1951.79C5502.03 1920.26 5527.32 1894.44 5558.85 1894.12L6839.02 1881.06C6870.54 1880.74 6896.37 1906.04 6896.68 1937.56Z" fill="white"/>
<path d="M6901.36 1936.76L6902.59 2056.55L5508.25 2070.8L5507 1948.2C5506.69 1918.03 5530.91 1893.31 5561.1 1892.99L6843.34 1879.89C6875.04 1879.58 6901.04 1905.04 6901.36 1936.76Z" fill="#599AF2"/>
<path d="M6729.28 1953.02C6724.74 1953.02 6721.02 1949.35 6720.97 1944.79C6720.92 1940.2 6724.61 1936.45 6729.2 1936.4L6833.78 1935.33C6837.82 1934.7 6842.13 1938.96 6842.18 1943.56C6842.22 1948.15 6838.53 1951.91 6833.95 1951.96L6729.36 1953.02C6729.33 1953.02 6729.31 1953.02 6729.28 1953.02Z" fill="white"/>
<path d="M6729.56 1979.73C6725.02 1979.73 6721.3 1976.06 6721.25 1971.51C6721.2 1966.92 6724.89 1963.16 6729.48 1963.11L6834.06 1962.05C6837.83 1962.16 6842.41 1965.69 6842.46 1970.28C6842.51 1974.86 6838.82 1978.62 6834.23 1978.67L6729.65 1979.73C6729.61 1979.73 6729.56 1979.73 6729.56 1979.73Z" fill="white"/>
<path d="M6729.83 2006.45C6725.27 2006.45 6721.57 2002.78 6721.52 1998.22C6721.47 1993.63 6725.16 1989.88 6729.75 1989.83L6834.33 1988.76C6834.36 1988.76 6834.38 1988.76 6834.41 1988.76C6838.95 1988.76 6842.67 1992.44 6842.72 1996.99C6842.77 2001.58 6839.08 2005.34 6834.49 2005.39L6729.91 2006.45C6729.88 2006.45 6729.86 2006.45 6729.83 2006.45Z" fill="white"/>
<path d="M5632.43 2034.23C5630.33 2034.23 5628.22 2033.45 5626.61 2031.85L5588.23 1994.25C5583.69 1989.79 5583.6 1982.46 5588.03 1977.91L5624.2 1940.98C5627.44 1937.73 5632.71 1937.64 5635.95 1940.87C5639.23 1944.08 5639.3 1949.35 5636.09 1952.62L5603.47 1985.9L5638.23 2019.96C5641.51 2023.17 5641.57 2028.44 5638.36 2031.72C5636.72 2033.38 5634.57 2034.23 5632.43 2034.23Z" fill="white"/>
<path opacity="0.36" d="M6859.05 4140.92L5574.57 4148.15C5543.58 4148.32 5518.31 4123.35 5518.14 4092.36L5515.63 3647.24L6912.33 3639.38L6914.84 4084.5C6915.02 4115.49 6890.06 4140.75 6859.05 4140.92Z" fill="#599AF2"/>
<path d="M6487.4 2374.67L5926.31 2377.83C5916.05 2377.88 5907.67 2369.62 5907.62 2359.36L5907.27 2297.94C5907.22 2287.68 5915.49 2279.32 5925.74 2279.25L6486.84 2276.09C6497.09 2276.04 6505.46 2284.3 6505.52 2294.56L6505.87 2356C6505.92 2366.24 6497.66 2374.61 6487.4 2374.67Z" fill="#4C65BA"/>
<path opacity="0.32" d="M6666.32 2776.24L5751.9 2781.39C5708.45 2781.64 5673.04 2746.62 5672.79 2703.16L5672.67 2683.88C5672.42 2640.42 5707.45 2605.01 5750.91 2604.76L6665.31 2599.61C6708.76 2599.36 6744.17 2634.39 6744.42 2677.84L6744.54 2697.13C6744.79 2740.58 6709.78 2775.99 6666.32 2776.24Z" fill="#599AF2"/>
<path opacity="0.43" d="M5819.51 2693.37C5819.68 2723.39 5795.47 2747.88 5765.45 2748.05C5735.43 2748.21 5710.94 2724.01 5710.77 2693.99C5710.61 2663.96 5734.81 2639.48 5764.84 2639.31C5794.88 2639.14 5819.35 2663.35 5819.51 2693.37Z" fill="white"/>
<path d="M5784.64 2678.04C5784.7 2688.87 5775.98 2697.68 5765.15 2697.74C5754.33 2697.81 5745.52 2689.08 5745.45 2678.26C5745.39 2667.44 5754.11 2658.63 5764.94 2658.56C5775.76 2658.49 5784.59 2667.22 5784.64 2678.04Z" fill="white"/>
<path d="M5794.38 2728.65L5736.29 2728.98L5736.26 2721.83C5736.16 2704.97 5749.74 2691.24 5766.6 2691.14C5781.82 2691.06 5794.23 2703.33 5794.33 2718.56L5794.38 2728.65Z" fill="white"/>
<path opacity="0.32" d="M6667.94 3064.02L5753.54 3069.17C5710.08 3069.42 5674.67 3034.4 5674.42 2990.94L5674.31 2971.66C5674.06 2928.2 5709.08 2892.79 5752.54 2892.54L6666.94 2887.39C6710.4 2887.14 6745.81 2922.17 6746.06 2965.62L6746.17 2984.91C6746.42 3028.34 6711.39 3063.77 6667.94 3064.02Z" fill="#599AF2"/>
<path opacity="0.43" d="M5821.14 2981.15C5821.31 3011.17 5797.11 3035.66 5767.08 3035.83C5737.06 3035.99 5712.57 3011.79 5712.41 2981.77C5712.24 2951.74 5736.45 2927.25 5766.47 2927.09C5796.49 2926.92 5820.96 2951.13 5821.14 2981.15Z" fill="white"/>
<path d="M5785.22 3015.6L5748.7 3015.8C5745.72 3015.81 5743.31 3013.42 5743.29 3010.44L5743.11 2977.98C5743.09 2975 5745.49 2972.59 5748.46 2972.57L5784.99 2972.37C5787.96 2972.36 5790.37 2974.75 5790.39 2977.73L5790.57 3010.19C5790.59 3013.15 5788.19 3015.56 5785.22 3015.6Z" fill="white"/>
<path d="M5747.72 2976.45L5747.65 2963.01C5747.62 2959.47 5748.98 2956.11 5751.47 2953.59C5753.97 2951.06 5757.31 2949.65 5760.87 2949.63L5773.2 2949.56C5773.23 2949.56 5773.25 2949.56 5773.28 2949.56C5776.44 2949.56 5779.43 2950.79 5781.7 2953.02C5783.96 2955.27 5785.2 2958.26 5785.22 2961.45L5785.32 2976.21L5781.16 2976.25L5781.06 2961.47C5781.06 2959.39 5780.23 2957.43 5778.75 2955.96C5777.29 2954.52 5775.34 2953.7 5773.28 2953.7H5773.23L5760.9 2953.77C5758.45 2953.79 5756.16 2954.75 5754.43 2956.5C5752.72 2958.24 5751.79 2960.54 5751.81 2962.98L5751.87 2976.41L5747.72 2976.45Z" fill="white"/>
<path d="M6427.32 3385.48L6032.87 3387.71C5985.12 3387.97 5946.19 3349.49 5945.92 3301.74C5945.66 3254 5984.14 3215.07 6031.89 3214.8L6426.32 3212.57C6474.07 3212.31 6513 3250.79 6513.27 3298.53C6513.55 3346.3 6475.07 3385.21 6427.32 3385.48Z" fill="#F7A9B4"/>
<path d="M5833.28 3830.8C5824.14 3830.8 5816.71 3823.42 5816.66 3814.28C5816.61 3805.08 5824 3797.6 5833.18 3797.55L6596.52 3793.25C6596.56 3793.25 6596.59 3793.25 6596.62 3793.25C6605.76 3793.25 6613.2 3800.63 6613.25 3809.77C6613.3 3818.97 6605.9 3826.45 6596.72 3826.5L5833.38 3830.8C5833.33 3830.8 5833.28 3830.8 5833.28 3830.8Z" fill="white"/>
<path d="M5988.65 3945.59C5979.5 3945.59 5972.07 3938.21 5972.02 3929.07C5971.97 3919.87 5979.37 3912.39 5988.55 3912.34L6442.43 3909.78C6442.47 3909.78 6442.5 3909.78 6442.53 3909.78C6451.68 3909.78 6459.11 3917.16 6459.16 3926.31C6459.21 3935.5 6451.81 3942.98 6442.63 3943.03L5988.75 3945.59C5988.71 3945.59 5988.68 3945.59 5988.65 3945.59Z" fill="white"/>
<path opacity="0.22" d="M5997.98 3490.87L6019.86 5632.74C6020.17 5664.28 5994.89 5690.1 5963.35 5690.41L4683.19 5703.48C4651.65 5703.8 4625.84 5678.51 4625.52 5646.97L4603.64 3505.1C4603.33 3473.57 4628.63 3447.75 4660.15 3447.44L5940.31 3434.35C5971.83 3434.04 5997.67 3459.34 5997.98 3490.87Z" fill="#3E479B"/>
<path d="M5921.72 3391.68L5943.6 5533.55C5943.92 5565.08 5918.63 5590.9 5887.1 5591.22L4606.93 5604.3C4575.4 5604.61 4549.58 5579.33 4549.26 5547.79L4527.39 3405.92C4527.07 3374.39 4552.37 3348.57 4583.89 3348.26L5864.06 3335.19C5895.59 3334.84 5921.41 3360.14 5921.72 3391.68Z" fill="white"/>
<path opacity="0.42" d="M5921.72 3391.68L5943.6 5533.55C5943.92 5565.08 5918.63 5590.9 5887.1 5591.22L4606.93 5604.3C4575.4 5604.61 4549.58 5579.33 4549.26 5547.79L4527.39 3405.92C4527.07 3374.39 4552.37 3348.57 4583.89 3348.26L5864.06 3335.19C5895.59 3334.84 5921.41 3360.14 5921.72 3391.68Z" fill="#599AF2"/>
<path d="M5926.4 3390.88L5927.63 3510.67L4533.29 3524.92L4532.04 3402.3C4531.74 3372.13 4555.95 3347.41 4586.14 3347.09L5868.38 3333.99C5900.1 3333.69 5926.08 3359.15 5926.4 3390.88Z" fill="#599AF2"/>
<path d="M5754.32 3407.12C5749.78 3407.12 5746.06 3403.45 5746.01 3398.89C5745.96 3394.3 5749.65 3390.55 5754.24 3390.5L5858.82 3389.43C5862.69 3389.38 5867.16 3393.07 5867.21 3397.66C5867.26 3402.25 5863.57 3406.01 5858.99 3406.06L5754.4 3407.12C5754.37 3407.12 5754.35 3407.12 5754.32 3407.12Z" fill="white"/>
<path d="M5754.6 3433.85C5750.06 3433.85 5746.34 3430.18 5746.29 3425.63C5746.24 3421.04 5749.93 3417.28 5754.52 3417.23L5859.1 3416.17C5859.13 3416.17 5859.15 3416.17 5859.18 3416.17C5863.72 3416.17 5867.45 3419.84 5867.5 3424.39C5867.55 3428.98 5863.85 3432.74 5859.27 3432.79L5754.68 3433.85C5754.65 3433.85 5754.63 3433.85 5754.6 3433.85Z" fill="white"/>
<path d="M5754.88 3460.57C5750.34 3460.57 5746.62 3456.89 5746.57 3452.34C5746.52 3447.75 5750.21 3443.99 5754.8 3443.94L5859.38 3442.88C5859.41 3442.88 5859.43 3442.88 5859.46 3442.88C5864 3442.88 5867.73 3446.55 5867.78 3451.11C5867.83 3455.7 5864.14 3459.45 5859.55 3459.5L5754.97 3460.57C5754.93 3460.57 5754.92 3460.57 5754.88 3460.57Z" fill="white"/>
<path d="M4657.47 3488.33C4655.38 3488.33 4653.27 3487.55 4651.65 3485.95L4613.27 3448.35C4608.75 3443.91 4608.65 3436.58 4613.05 3432.04L4649.24 3395.1C4652.49 3391.86 4657.76 3391.76 4661 3394.99C4664.27 3398.2 4664.34 3403.46 4661.13 3406.74L4628.51 3440.02L4663.27 3474.08C4666.55 3477.29 4666.62 3482.56 4663.41 3485.84C4661.78 3487.5 4659.63 3488.33 4657.47 3488.33Z" fill="white"/>
<g opacity="0.36">
<path d="M5884.1 5595.04L4599.61 5602.27C4568.62 5602.44 4543.36 5577.47 4543.19 5546.48L4540.68 5101.36L5937.38 5093.49L5939.89 5538.62C5940.05 5569.59 5915.09 5594.86 5884.1 5595.04Z" fill="white"/>
<path d="M4599.27 5610.58C4582.21 5610.58 4566.15 5603.98 4554 5591.98C4541.76 5579.86 4534.98 5563.74 4534.88 5546.53L4532.32 5093.11L5945.66 5085.15L5948.2 5538.57C5948.42 5574.09 5919.68 5603.15 5884.15 5603.37L4599.65 5610.6C4599.53 5610.58 4599.4 5610.58 4599.27 5610.58ZM4549.04 5109.62L4551.5 5546.41C4551.57 5559.2 4556.61 5571.15 4565.7 5580.13C4574.71 5589.04 4586.63 5593.94 4599.3 5593.94C4599.38 5593.94 4599.48 5593.94 4599.58 5593.94L5884.08 5586.71C5910.43 5586.56 5931.75 5564.98 5931.6 5538.63L5929.15 5101.84L4549.04 5109.62Z" fill="white"/>
</g>
<path d="M5778.41 3855.42L4771.54 3854.18C4753.62 3854.16 4739.12 3839.61 4739.14 3821.69L4739.27 3721.28C4739.29 3703.36 4753.84 3688.85 4771.76 3688.88L5778.62 3690.13C5796.54 3690.15 5811.04 3704.69 5811.02 3722.61L5810.91 3823.02C5810.87 3840.94 5796.33 3855.46 5778.41 3855.42Z" fill="white"/>
<path d="M5783.31 3983.51L4766.36 3982.25C4751.23 3982.23 4738.98 3969.94 4738.99 3954.82C4739.01 3939.69 4751.29 3927.44 4766.42 3927.47L5783.38 3928.73C5798.51 3928.75 5810.76 3941.04 5810.74 3956.16C5810.71 3971.27 5798.44 3983.53 5783.31 3983.51Z" fill="white"/>
<path d="M5783.15 4109.82L4766.19 4108.56C4751.06 4108.54 4738.81 4096.25 4738.83 4081.13C4738.84 4066 4751.13 4053.75 4766.26 4053.78L5783.21 4055.04C5798.34 4055.06 5810.59 4067.34 5810.58 4082.47C5810.56 4097.58 5798.28 4109.84 5783.15 4109.82Z" fill="white"/>
<path d="M4876.46 4294.98C4876.41 4333.05 4845.5 4363.88 4807.43 4363.83C4769.37 4363.79 4738.53 4332.88 4738.58 4294.81C4738.63 4256.74 4769.53 4225.91 4807.6 4225.96C4845.67 4225.99 4876.51 4256.89 4876.46 4294.98Z" fill="#F7A9B4"/>
<path d="M4876.06 4607.51C4876.01 4645.58 4845.11 4676.42 4807.04 4676.37C4768.97 4676.32 4738.13 4645.41 4738.18 4607.34C4738.23 4569.27 4769.13 4538.44 4807.2 4538.49C4845.29 4538.54 4876.11 4569.44 4876.06 4607.51Z" fill="#F7A9B4"/>
<path d="M4875.69 4910.86C4875.64 4948.93 4844.74 4979.77 4806.67 4979.72C4768.6 4979.67 4737.76 4948.77 4737.81 4910.7C4737.86 4872.63 4768.77 4841.79 4806.84 4841.84C4844.9 4841.89 4875.74 4872.79 4875.69 4910.86Z" fill="#F7A9B4"/>
<path d="M5575.19 4270.51H5575.18L4915.54 4269.69C4910.97 4269.69 4907.24 4265.95 4907.24 4261.36C4907.24 4256.79 4910.98 4253.07 4915.55 4253.07H4915.57L5575.21 4253.88C5579.78 4253.88 5583.51 4257.62 5583.51 4262.21C5583.51 4266.78 5579.77 4270.51 5575.19 4270.51Z" fill="white"/>
<path d="M5245.3 4340.26H5245.28L4915.46 4339.86C4910.89 4339.86 4907.16 4336.12 4907.16 4331.53C4907.16 4326.96 4910.9 4323.24 4915.48 4323.24H4915.49L5245.31 4323.64C5249.88 4323.64 5253.61 4327.38 5253.61 4331.97C5253.61 4336.54 5249.88 4340.26 5245.3 4340.26Z" fill="white"/>
<path d="M5574.81 4593.31L4915.14 4592.48C4910.57 4592.48 4906.84 4588.74 4906.84 4584.15C4906.84 4579.58 4910.58 4575.86 4915.16 4575.86H4915.17L5574.83 4576.69C5579.4 4576.69 5583.12 4580.43 5583.12 4585.02C5583.12 4589.59 5579.38 4593.31 5574.81 4593.31Z" fill="white"/>
<path d="M5244.9 4663.07C5244.9 4663.07 5244.9 4663.07 5244.88 4663.07L4915.06 4662.65C4910.49 4662.65 4906.77 4658.91 4906.77 4654.32C4906.77 4649.75 4910.51 4646.03 4915.08 4646.03L5244.91 4646.44C5249.49 4646.44 5253.21 4650.18 5253.21 4654.77C5253.21 4659.34 5249.47 4663.07 5244.9 4663.07Z" fill="white"/>
<path d="M5574.43 4888.04C5574.43 4888.04 5574.43 4888.04 5574.41 4888.04L4914.77 4887.21C4910.2 4887.21 4906.48 4883.47 4906.48 4878.88C4906.48 4874.31 4910.22 4870.58 4914.79 4870.58L5574.45 4871.41C5579.02 4871.41 5582.74 4875.15 5582.74 4879.74C5582.74 4884.31 5579.02 4888.04 5574.43 4888.04Z" fill="white"/>
<path d="M5244.53 4957.79H5244.51L4914.68 4957.39C4910.11 4957.39 4906.38 4953.65 4906.38 4949.06C4906.38 4944.49 4910.12 4940.77 4914.69 4940.77H4914.71L5244.55 4941.17C5249.12 4941.17 5252.84 4944.91 5252.84 4949.5C5252.84 4954.09 5249.12 4957.79 5244.53 4957.79Z" fill="white"/>
<path d="M4858.32 5284.9C4849.18 5284.9 4841.75 5277.52 4841.7 5268.38C4841.65 5259.18 4849.04 5251.7 4858.22 5251.65L5621.56 5247.35C5621.59 5247.35 5621.63 5247.35 5621.66 5247.35C5630.8 5247.35 5638.23 5254.73 5638.28 5263.87C5638.33 5273.07 5630.94 5280.55 5621.76 5280.6L4858.42 5284.9C4858.39 5284.9 4858.35 5284.9 4858.32 5284.9Z" fill="white"/>
<path d="M5013.7 5399.71C5004.56 5399.71 4997.13 5392.33 4997.08 5383.18C4997.03 5373.99 5004.43 5366.51 5013.6 5366.46L5467.49 5363.9C5467.52 5363.9 5467.55 5363.9 5467.59 5363.9C5476.73 5363.9 5484.16 5371.28 5484.21 5380.42C5484.26 5389.62 5476.86 5397.1 5467.69 5397.15L5013.8 5399.71C5013.77 5399.71 5013.74 5399.71 5013.7 5399.71Z" fill="white"/>
<path d="M2976.83 3034.34H1785.1C1770.31 3034.34 1758.3 3022.34 1758.3 3007.55V2661.17C1758.3 2646.36 1770.31 2634.37 1785.1 2634.37H2976.83C2991.62 2634.37 3003.63 2646.37 3003.63 2661.17V3007.55C3003.63 3022.36 2991.62 3034.34 2976.83 3034.34Z" fill="#599AF2"/>
<path d="M1967.68 2955.56C1896.67 2955.56 1838.9 2897.79 1838.9 2826.78C1838.9 2755.76 1896.67 2697.99 1967.68 2697.99C2038.7 2697.99 2096.47 2755.76 2096.47 2826.78C2096.47 2897.79 2038.7 2955.56 1967.68 2955.56Z" fill="#F7A9B4"/>
<path d="M1956.29 2875.14L1908.15 2808.54C1904.05 2802.86 1905.34 2794.89 1910.99 2790.79C1913.75 2788.79 1917.11 2788.03 1920.49 2788.53C1923.84 2789.07 1926.77 2790.89 1928.77 2793.65L1959.44 2836.04L2112.56 2682.91C2114.94 2680.52 2118.13 2679.19 2121.54 2679.19C2124.93 2679.19 2128.14 2680.5 2130.55 2682.91C2135.5 2687.87 2135.5 2695.93 2130.55 2700.88L1956.29 2875.14Z" fill="white"/>
<path opacity="0.38" d="M2842.66 2776.64H2205.48C2200.89 2776.64 2197.16 2772.92 2197.16 2768.33C2197.16 2763.74 2200.89 2760.02 2205.48 2760.02H2842.66C2847.25 2760.02 2850.97 2763.74 2850.97 2768.33C2850.97 2772.92 2847.25 2776.64 2842.66 2776.64Z" fill="white"/>
<path opacity="0.38" d="M2490.18 2852.23H2205.48C2200.89 2852.23 2197.16 2848.51 2197.16 2843.92C2197.16 2839.33 2200.89 2835.61 2205.48 2835.61H2490.18C2494.77 2835.61 2498.49 2839.33 2498.49 2843.92C2498.49 2848.51 2494.78 2852.23 2490.18 2852.23Z" fill="white"/>
<path opacity="0.38" d="M2842.66 2852.23H2557.94C2553.35 2852.23 2549.62 2848.51 2549.62 2843.92C2549.62 2839.33 2553.35 2835.61 2557.94 2835.61H2842.64C2847.23 2835.61 2850.95 2839.33 2850.95 2843.92C2850.97 2848.51 2847.24 2852.23 2842.66 2852.23Z" fill="white"/>
<path opacity="0.38" d="M2842.66 2931.33H2205.48C2200.89 2931.33 2197.16 2927.6 2197.16 2923.01C2197.16 2918.42 2200.89 2914.7 2205.48 2914.7H2842.66C2847.25 2914.7 2850.97 2918.42 2850.97 2923.01C2850.97 2927.6 2847.25 2931.33 2842.66 2931.33Z" fill="white"/>
<path d="M7534.91 4872.21H6343.19C6328.39 4872.21 6316.39 4860.21 6316.39 4845.41V4499.04C6316.39 4484.22 6328.39 4472.24 6343.19 4472.24H7534.91C7549.71 4472.24 7561.71 4484.24 7561.71 4499.04V4845.41C7561.71 4860.21 7549.71 4872.21 7534.91 4872.21Z" fill="#599AF2"/>
<path d="M6525.77 4793.41C6454.75 4793.41 6396.98 4735.64 6396.98 4664.63C6396.98 4593.61 6454.75 4535.84 6525.77 4535.84C6596.79 4535.84 6654.56 4593.61 6654.56 4664.63C6654.56 4735.64 6596.79 4793.41 6525.77 4793.41Z" fill="#F7A9B4"/>
<path d="M6514.38 4713L6466.24 4646.41C6464.25 4643.65 6463.45 4640.29 6463.98 4636.95C6464.51 4633.59 6466.34 4630.63 6469.1 4628.65C6471.81 4626.67 6475.14 4625.83 6478.56 4626.39C6481.93 4626.94 6484.89 4628.77 6486.87 4631.56L6517.53 4673.92L6670.65 4520.8C6675.62 4515.84 6683.65 4515.83 6688.62 4520.8C6693.57 4525.75 6693.57 4533.81 6688.62 4538.77L6514.38 4713ZM6473.36 4641.25L6473.39 4641.3L6473.36 4641.25Z" fill="white"/>
<path opacity="0.38" d="M7400.74 4614.49H6763.56C6758.97 4614.49 6755.25 4610.77 6755.25 4606.18C6755.25 4601.59 6758.97 4597.87 6763.56 4597.87H7400.74C7405.33 4597.87 7409.05 4601.59 7409.05 4606.18C7409.05 4610.78 7405.33 4614.49 7400.74 4614.49Z" fill="white"/>
<path opacity="0.38" d="M7048.26 4690.08H6763.56C6758.97 4690.08 6755.25 4686.36 6755.25 4681.77C6755.25 4677.18 6758.97 4673.46 6763.56 4673.46H7048.26C7052.85 4673.46 7056.58 4677.18 7056.58 4681.77C7056.58 4686.37 7052.87 4690.08 7048.26 4690.08Z" fill="white"/>
<path opacity="0.38" d="M7400.74 4690.08H7116.04C7111.45 4690.08 7107.73 4686.36 7107.73 4681.77C7107.73 4677.18 7111.45 4673.46 7116.04 4673.46H7400.74C7405.33 4673.46 7409.05 4677.18 7409.05 4681.77C7409.05 4686.37 7405.33 4690.08 7400.74 4690.08Z" fill="white"/>
<path opacity="0.38" d="M7400.74 4769.18H6763.56C6758.97 4769.18 6755.25 4765.45 6755.25 4760.86C6755.25 4756.28 6758.97 4752.55 6763.56 4752.55H7400.74C7405.33 4752.55 7409.05 4756.28 7409.05 4760.86C7409.05 4765.47 7405.33 4769.18 7400.74 4769.18Z" fill="white"/>
</svg>
