<svg width="339" height="109" viewBox="0 0 339 109" fill="none" xmlns="http://www.w3.org/2000/svg">
<path d="M331.705 108.88H7.29489C3.26731 108.88 0 105.613 0 101.585V7.29489C0 3.26279 3.26731 0 7.29489 0H331.705C335.733 0 339 3.26731 339 7.29489V101.585C339 105.613 335.733 108.88 331.705 108.88Z" fill="#171819"/>
<path d="M56.9956 87.4285C37.6632 87.4285 21.9375 71.703 21.9375 52.3706C21.9375 33.0382 37.6632 17.3125 56.9956 17.3125C76.328 17.3125 92.0537 33.0382 92.0537 52.3706C92.0537 71.703 76.328 87.4285 56.9956 87.4285Z" fill="#F1C34F"/>
<path d="M53.8974 65.5406L40.7919 47.4119C40.2489 46.6607 40.0317 45.7465 40.1766 44.8369C40.3214 43.9228 40.8191 43.1173 41.5703 42.5788C42.3079 42.0403 43.213 41.8094 44.1452 41.9633C45.0639 42.1126 45.8694 42.6104 46.4079 43.3707L54.7527 54.9014L96.4358 13.2182C97.7889 11.8696 99.9747 11.8651 101.328 13.2182C102.676 14.5668 102.676 16.7615 101.328 18.1101L53.8974 65.5406ZM42.7288 46.009L42.7378 46.0226L42.7288 46.009Z" fill="white"/>
<path opacity="0.38" d="M295.184 38.7226H121.731C120.482 38.7226 119.469 37.709 119.469 36.4599C119.469 35.2109 120.482 34.1973 121.731 34.1973H295.184C296.433 34.1973 297.447 35.2109 297.447 36.4599C297.447 37.7135 296.433 38.7226 295.184 38.7226Z" fill="white"/>
<path opacity="0.38" d="M199.233 59.3008H121.731C120.482 59.3008 119.469 58.2871 119.469 57.0381C119.469 55.7891 120.482 54.7754 121.731 54.7754H199.233C200.482 54.7754 201.495 55.7891 201.495 57.0381C201.495 58.2916 200.486 59.3008 199.233 59.3008Z" fill="white"/>
<path opacity="0.38" d="M295.178 59.3008H217.677C216.428 59.3008 215.414 58.2871 215.414 57.0381C215.414 55.7891 216.428 54.7754 217.677 54.7754H295.178C296.427 54.7754 297.441 55.7891 297.441 57.0381C297.441 58.2916 296.427 59.3008 295.178 59.3008Z" fill="white"/>
<path opacity="0.38" d="M295.184 80.832H121.731C120.482 80.832 119.469 79.8183 119.469 78.5693C119.469 77.3203 120.482 76.3066 121.731 76.3066H295.184C296.433 76.3066 297.447 77.3203 297.447 78.5693C297.447 79.8229 296.433 80.832 295.184 80.832Z" fill="white"/>
</svg>
