<svg width="115" height="277" viewBox="0 0 115 277" fill="none" xmlns="http://www.w3.org/2000/svg">
<path d="M107.273 27.3933C107.273 27.3933 111.538 26.9986 113.621 21.0096L85.9922 20.9531V27.3927H107.273V27.3933Z" fill="#E2E3E3"/>
<path d="M107.272 28.3848H85.9913C85.6078 28.3848 85.2969 27.9417 85.2969 27.3936V20.954C85.2969 20.6907 85.3704 20.4394 85.5004 20.2533C85.6304 20.0678 85.8076 19.9629 85.9913 19.9629H85.9921L113.621 20.0188C113.862 20.0188 114.084 20.1968 114.211 20.489C114.337 20.7789 114.35 21.1431 114.242 21.4508C112.007 27.8771 107.507 28.3646 107.317 28.3819C107.302 28.3848 107.287 28.3848 107.272 28.3848ZM86.6854 26.4025H107.245C107.548 26.3656 110.493 25.9104 112.406 21.9988L86.6854 21.9463V26.4025Z" fill="black"/>
<path d="M107.273 27.3929H85.9919V20.9533V8.12652C85.9919 8.12652 86.2689 0.990234 79.5255 0.990234H42.1516V11.5293L0.695312 22.3939V25.6918H25.0939L29.6587 34.218H54.8059V275.982H80.8575V83.7443V71.767V34.2168H101.539C112.749 34.2168 113.621 21.0086 113.621 21.0086C111.538 26.9981 107.273 27.3929 107.273 27.3929Z" fill="#F1F2F2"/>
<path d="M80.857 276.975H54.8054C54.4215 276.975 54.111 276.531 54.111 275.983V35.2095H29.6583C29.4419 35.2095 29.2376 35.066 29.1059 34.8205L24.7499 26.6833H0.69445C0.310484 26.6833 0 26.2401 0 25.6921V22.3942C0 21.9159 0.239422 21.5057 0.568882 21.4186L41.4562 10.7033V0.990579C41.4562 0.443142 41.7667 0 42.1507 0H79.5246C82.0614 0 83.9828 0.958306 85.2344 2.84552C86.782 5.17934 86.6892 8.06175 86.6843 8.18161L86.6855 26.4032H107.272C107.383 26.3899 111.127 25.948 112.998 20.5692C113.147 20.1434 113.488 19.9192 113.81 20.0581C114.132 20.1878 114.343 20.6275 114.311 21.1034C114.302 21.2452 113.245 35.21 101.538 35.21H81.551V275.984C81.5514 276.531 81.241 276.975 80.857 276.975ZM55.4999 274.992H80.163V34.2183C80.163 33.6703 80.4738 33.2272 80.8574 33.2272H101.539C107.635 33.2272 110.482 29.217 111.805 25.7699C109.701 28.1273 107.451 28.3711 107.318 28.3826L85.9923 28.3843C85.6087 28.3843 85.2978 27.9412 85.2978 27.3932V8.12628C85.2991 8.05483 85.3532 5.88697 84.2122 4.1853C83.2315 2.72221 81.6552 1.98058 79.5258 1.98058H42.8464V11.5285C42.8464 12.0068 42.6069 12.417 42.2775 12.5041L1.39011 23.2194V24.7004H25.0947C25.3111 24.7004 25.515 24.8433 25.6466 25.0894L30.0027 33.2266H54.8066C55.1902 33.2266 55.5011 33.6697 55.5011 34.2177V274.992H55.4999Z" fill="black"/>
<path d="M0.695312 25.6914V34.2176H29.6587L25.0939 25.6914H0.695312Z" fill="#E2E3E3"/>
<path d="M29.6579 35.2091H0.69445C0.310484 35.2091 0 34.766 0 34.2179V25.6917C0 25.1437 0.310484 24.7012 0.69445 24.7012H25.0931C25.3095 24.7012 25.5134 24.8441 25.645 25.0901L30.2098 33.6163C30.3697 33.916 30.3975 34.3188 30.2804 34.6576C30.163 34.9941 29.9223 35.2091 29.6579 35.2091ZM1.3889 33.2268H28.254L24.7503 26.6829H1.38931V33.2268H1.3889Z" fill="black"/>
<path d="M80.8557 48.9114H74.0695C73.6859 48.9114 73.375 48.4677 73.375 47.9203C73.375 47.3728 73.6859 46.9297 74.0695 46.9297H80.8557C81.2397 46.9297 81.5501 47.3728 81.5501 47.9203C81.5501 48.4677 81.2397 48.9114 80.8557 48.9114Z" fill="black"/>
<path d="M80.8557 65.1444H74.0695C73.6859 65.1444 73.375 64.7013 73.375 64.1533C73.375 63.6052 73.6859 63.1621 74.0695 63.1621H80.8557C81.2397 63.1621 81.5501 63.6052 81.5501 64.1533C81.5501 64.7013 81.2397 65.1444 80.8557 65.1444Z" fill="black"/>
<path d="M80.8557 81.3763H74.0695C73.6859 81.3763 73.375 80.9331 73.375 80.3851C73.375 79.8371 73.6859 79.3945 74.0695 79.3945H80.8557C81.2397 79.3945 81.5501 79.8377 81.5501 80.3851C81.5501 80.9331 81.2397 81.3763 80.8557 81.3763Z" fill="black"/>
<path d="M80.8557 97.6087H74.0695C73.6859 97.6087 73.375 97.1655 73.375 96.6175C73.375 96.0701 73.6859 95.627 74.0695 95.627H80.8557C81.2397 95.627 81.5501 96.0701 81.5501 96.6175C81.5501 97.165 81.2397 97.6087 80.8557 97.6087Z" fill="black"/>
<path d="M80.8557 113.839H74.0695C73.6859 113.839 73.375 113.397 73.375 112.849C73.375 112.301 73.6859 111.857 74.0695 111.857H80.8557C81.2397 111.857 81.5501 112.301 81.5501 112.849C81.5501 113.396 81.2397 113.839 80.8557 113.839Z" fill="black"/>
<path d="M80.8557 130.068H74.0695C73.6859 130.068 73.375 129.625 73.375 129.077C73.375 128.528 73.6859 128.086 74.0695 128.086H80.8557C81.2397 128.086 81.5501 128.529 81.5501 129.077C81.5501 129.625 81.2397 130.068 80.8557 130.068Z" fill="black"/>
<path d="M80.8557 146.301H74.0695C73.6859 146.301 73.375 145.858 73.375 145.31C73.375 144.761 73.6859 144.318 74.0695 144.318H80.8557C81.2397 144.318 81.5501 144.762 81.5501 145.31C81.5501 145.857 81.2397 146.301 80.8557 146.301Z" fill="black"/>
<path d="M80.8557 162.532H74.0695C73.6859 162.532 73.375 162.088 73.375 161.54C73.375 160.993 73.6859 160.549 74.0695 160.549H80.8557C81.2397 160.549 81.5501 160.993 81.5501 161.54C81.5501 162.089 81.2397 162.532 80.8557 162.532Z" fill="black"/>
<path d="M80.8557 178.764H74.0695C73.6859 178.764 73.375 178.32 73.375 177.772C73.375 177.225 73.6859 176.781 74.0695 176.781H80.8557C81.2397 176.781 81.5501 177.225 81.5501 177.772C81.5501 178.321 81.2397 178.764 80.8557 178.764Z" fill="black"/>
<path d="M80.8557 194.995H74.0695C73.6859 194.995 73.375 194.551 73.375 194.003C73.375 193.456 73.6859 193.012 74.0695 193.012H80.8557C81.2397 193.012 81.5501 193.455 81.5501 194.003C81.5501 194.551 81.2397 194.995 80.8557 194.995Z" fill="black"/>
<path d="M80.8557 211.226H74.0695C73.6859 211.226 73.375 210.783 73.375 210.235C73.375 209.687 73.6859 209.244 74.0695 209.244H80.8557C81.2397 209.244 81.5501 209.687 81.5501 210.235C81.5501 210.783 81.2397 211.226 80.8557 211.226Z" fill="black"/>
<path d="M80.8557 227.459H74.0695C73.6859 227.459 73.375 227.016 73.375 226.468C73.375 225.92 73.6859 225.477 74.0695 225.477H80.8557C81.2397 225.477 81.5501 225.92 81.5501 226.468C81.5501 227.016 81.2397 227.459 80.8557 227.459Z" fill="black"/>
<path d="M80.8557 243.689H74.0695C73.6859 243.689 73.375 243.246 73.375 242.698C73.375 242.15 73.6859 241.707 74.0695 241.707H80.8557C81.2397 241.707 81.5501 242.15 81.5501 242.698C81.5501 243.246 81.2397 243.689 80.8557 243.689Z" fill="black"/>
<path d="M70.3061 34.2188H64.6641V275.034H70.3061V34.2188Z" fill="#D1D3D4"/>
<path d="M101.699 61.8184H89.9377C89.9377 61.8184 89.6199 71.769 80.8594 71.769V83.7464H91.6165L91.5866 75.0272H113.785C113.785 75.0272 112.913 61.8184 101.699 61.8184Z" fill="#D1D3D4"/>
<path d="M91.6435 84.7365C91.6334 84.7365 91.6249 84.7365 91.6156 84.7365H80.8585C80.475 84.7365 80.1641 84.2934 80.1641 83.7454V71.768C80.1641 71.22 80.475 70.7769 80.8585 70.7769C88.8217 70.7769 89.2295 62.1366 89.2432 61.7689C89.263 61.2422 89.5674 60.8262 89.9372 60.8262H101.699C113.409 60.8262 114.465 74.7916 114.474 74.9322C114.494 75.2111 114.429 75.486 114.297 75.6928C114.166 75.898 113.979 76.0161 113.784 76.0161H92.2842L92.3097 83.4618C92.3278 83.5512 92.3375 83.6457 92.3375 83.7448C92.3375 84.2934 92.0266 84.7365 91.6435 84.7365ZM81.553 82.7548H90.9179L90.8917 75.0319C90.8905 74.7668 90.9632 74.5133 91.094 74.3271C91.224 74.1393 91.4016 74.035 91.5857 74.035H112.96C112.482 71.0114 110.384 62.809 101.699 62.809H90.5396C90.1985 65.3774 88.6246 72.3126 81.553 72.7384V82.7548Z" fill="black"/>
<path d="M80.8585 84.737C80.475 84.737 80.1641 84.2939 80.1641 83.7459V71.7685C80.1641 71.2205 80.475 70.7773 80.8585 70.7773C81.2425 70.7773 81.553 71.2205 81.553 71.7685V83.7459C81.553 84.2939 81.2425 84.737 80.8585 84.737Z" fill="black"/>
<path d="M29.6737 83.7441H0.695312V92.3072H25.0939L29.6737 83.7441Z" fill="#E2E3E3"/>
<path d="M25.0931 93.2993H0.69445C0.310484 93.2993 0 92.8562 0 92.3081V83.7451C0 83.197 0.310484 82.7539 0.69445 82.7539H29.6728C29.9365 82.7539 30.1779 82.9671 30.295 83.3054C30.4117 83.6425 30.3846 84.047 30.2247 84.3472L25.645 92.9097C25.5134 93.1558 25.3095 93.2993 25.0931 93.2993ZM1.3889 91.317H24.7495L28.2694 84.7362H1.3889V91.317Z" fill="black"/>
<path d="M42.1516 83.7441H29.6737L25.0939 92.3072H0.695312V95.5688L42.1516 106.433L54.8059 124.585H80.8574L91.6142 110.056V83.7441H42.1516Z" fill="white"/>
<path d="M80.8562 125.576H54.8046C54.6201 125.576 54.4429 125.472 54.312 125.284L41.8111 107.353L0.568882 96.5453C0.239422 96.4583 0 96.048 0 95.5697V92.3081C0 91.7601 0.310484 91.317 0.69445 91.317H24.7491L29.1205 83.1429C29.2521 82.8968 29.4564 82.7539 29.6728 82.7539H91.6133C91.9973 82.7539 92.3077 83.197 92.3077 83.7451V110.057C92.3077 110.33 92.2294 110.59 92.0909 110.778L81.3342 125.306C81.2046 125.479 81.0338 125.576 80.8562 125.576ZM55.0933 123.594H80.5796L90.9184 109.631V84.7356H30.016L25.6446 92.9097C25.513 93.1558 25.3091 93.2987 25.0927 93.2987H1.38809V94.7428L42.2754 105.458C42.4143 105.494 42.5427 105.591 42.6425 105.734L55.0933 123.594Z" fill="black"/>
<path d="M91.6162 111.049H54.7644C54.3808 111.049 54.0703 110.605 54.0703 110.058C54.0703 109.51 54.3808 109.066 54.7644 109.066H91.6162C92.0002 109.066 92.3107 109.51 92.3107 110.058C92.3107 110.606 92.0006 111.049 91.6162 111.049Z" fill="black"/>
<path d="M54.7583 12.5208H42.1476C41.7636 12.5208 41.4531 12.0777 41.4531 11.5296C41.4531 10.9816 41.7636 10.5391 42.1476 10.5391H54.7583C55.1423 10.5391 55.4527 10.9822 55.4527 11.5296C55.4527 12.0771 55.1423 12.5208 54.7583 12.5208Z" fill="black"/>
</svg>
